<?xml version="1.0" encoding="utf-8"?>
<svg xmlns="http://www.w3.org/2000/svg" xmlns:xlink="http://www.w3.org/1999/xlink" width="600" height="400" viewBox="0 0 2400 1600">
<defs>
  <clipPath id="clip5800">
    <rect x="0" y="0" width="2400" height="1600"/>
  </clipPath>
</defs>
<path clip-path="url(#clip5800)" d="
M0 1600 L2400 1600 L2400 0 L0 0  Z
  " fill="#ffffff" fill-rule="evenodd" fill-opacity="1"/>
<defs>
  <clipPath id="clip5801">
    <rect x="480" y="0" width="1681" height="1600"/>
  </clipPath>
</defs>
<path clip-path="url(#clip5800)" d="
M168.627 1487.47 L2112.76 1487.47 L2112.76 47.2441 L168.627 47.2441  Z
  " fill="#ffffff" fill-rule="evenodd" fill-opacity="1"/>
<defs>
  <clipPath id="clip5802">
    <rect x="168" y="47" width="1945" height="1441"/>
  </clipPath>
</defs>
<polyline clip-path="url(#clip5802)" style="stroke:#000000; stroke-width:2; stroke-opacity:0.1; fill:none" points="
  223.649,1487.47 223.649,47.2441 
  "/>
<polyline clip-path="url(#clip5802)" style="stroke:#000000; stroke-width:2; stroke-opacity:0.1; fill:none" points="
  682.17,1487.47 682.17,47.2441 
  "/>
<polyline clip-path="url(#clip5802)" style="stroke:#000000; stroke-width:2; stroke-opacity:0.1; fill:none" points="
  1140.69,1487.47 1140.69,47.2441 
  "/>
<polyline clip-path="url(#clip5802)" style="stroke:#000000; stroke-width:2; stroke-opacity:0.1; fill:none" points="
  1599.21,1487.47 1599.21,47.2441 
  "/>
<polyline clip-path="url(#clip5802)" style="stroke:#000000; stroke-width:2; stroke-opacity:0.1; fill:none" points="
  2057.73,1487.47 2057.73,47.2441 
  "/>
<polyline clip-path="url(#clip5802)" style="stroke:#000000; stroke-width:2; stroke-opacity:0.1; fill:none" points="
  168.627,1446.71 2112.76,1446.71 
  "/>
<polyline clip-path="url(#clip5802)" style="stroke:#000000; stroke-width:2; stroke-opacity:0.1; fill:none" points="
  168.627,1107.04 2112.76,1107.04 
  "/>
<polyline clip-path="url(#clip5802)" style="stroke:#000000; stroke-width:2; stroke-opacity:0.1; fill:none" points="
  168.627,767.359 2112.76,767.359 
  "/>
<polyline clip-path="url(#clip5802)" style="stroke:#000000; stroke-width:2; stroke-opacity:0.1; fill:none" points="
  168.627,427.682 2112.76,427.682 
  "/>
<polyline clip-path="url(#clip5802)" style="stroke:#000000; stroke-width:2; stroke-opacity:0.1; fill:none" points="
  168.627,88.0053 2112.76,88.0053 
  "/>
<polyline clip-path="url(#clip5800)" style="stroke:#000000; stroke-width:4; stroke-opacity:1; fill:none" points="
  168.627,1487.47 2112.76,1487.47 
  "/>
<polyline clip-path="url(#clip5800)" style="stroke:#000000; stroke-width:4; stroke-opacity:1; fill:none" points="
  168.627,1487.47 168.627,47.2441 
  "/>
<polyline clip-path="url(#clip5800)" style="stroke:#000000; stroke-width:4; stroke-opacity:1; fill:none" points="
  223.649,1487.47 223.649,1470.19 
  "/>
<polyline clip-path="url(#clip5800)" style="stroke:#000000; stroke-width:4; stroke-opacity:1; fill:none" points="
  682.17,1487.47 682.17,1470.19 
  "/>
<polyline clip-path="url(#clip5800)" style="stroke:#000000; stroke-width:4; stroke-opacity:1; fill:none" points="
  1140.69,1487.47 1140.69,1470.19 
  "/>
<polyline clip-path="url(#clip5800)" style="stroke:#000000; stroke-width:4; stroke-opacity:1; fill:none" points="
  1599.21,1487.47 1599.21,1470.19 
  "/>
<polyline clip-path="url(#clip5800)" style="stroke:#000000; stroke-width:4; stroke-opacity:1; fill:none" points="
  2057.73,1487.47 2057.73,1470.19 
  "/>
<polyline clip-path="url(#clip5800)" style="stroke:#000000; stroke-width:4; stroke-opacity:1; fill:none" points="
  168.627,1446.71 191.956,1446.71 
  "/>
<polyline clip-path="url(#clip5800)" style="stroke:#000000; stroke-width:4; stroke-opacity:1; fill:none" points="
  168.627,1107.04 191.956,1107.04 
  "/>
<polyline clip-path="url(#clip5800)" style="stroke:#000000; stroke-width:4; stroke-opacity:1; fill:none" points="
  168.627,767.359 191.956,767.359 
  "/>
<polyline clip-path="url(#clip5800)" style="stroke:#000000; stroke-width:4; stroke-opacity:1; fill:none" points="
  168.627,427.682 191.956,427.682 
  "/>
<polyline clip-path="url(#clip5800)" style="stroke:#000000; stroke-width:4; stroke-opacity:1; fill:none" points="
  168.627,88.0053 191.956,88.0053 
  "/>
<g clip-path="url(#clip5800)">
<text style="fill:#000000; fill-opacity:1; font-family:Arial,Helvetica Neue,Helvetica,sans-serif; font-size:48px; text-anchor:middle;" transform="rotate(0, 223.649, 1541.47)" x="223.649" y="1541.47">-10</text>
</g>
<g clip-path="url(#clip5800)">
<text style="fill:#000000; fill-opacity:1; font-family:Arial,Helvetica Neue,Helvetica,sans-serif; font-size:48px; text-anchor:middle;" transform="rotate(0, 682.17, 1541.47)" x="682.17" y="1541.47">-5</text>
</g>
<g clip-path="url(#clip5800)">
<text style="fill:#000000; fill-opacity:1; font-family:Arial,Helvetica Neue,Helvetica,sans-serif; font-size:48px; text-anchor:middle;" transform="rotate(0, 1140.69, 1541.47)" x="1140.69" y="1541.47">0</text>
</g>
<g clip-path="url(#clip5800)">
<text style="fill:#000000; fill-opacity:1; font-family:Arial,Helvetica Neue,Helvetica,sans-serif; font-size:48px; text-anchor:middle;" transform="rotate(0, 1599.21, 1541.47)" x="1599.21" y="1541.47">5</text>
</g>
<g clip-path="url(#clip5800)">
<text style="fill:#000000; fill-opacity:1; font-family:Arial,Helvetica Neue,Helvetica,sans-serif; font-size:48px; text-anchor:middle;" transform="rotate(0, 2057.73, 1541.47)" x="2057.73" y="1541.47">10</text>
</g>
<g clip-path="url(#clip5800)">
<text style="fill:#000000; fill-opacity:1; font-family:Arial,Helvetica Neue,Helvetica,sans-serif; font-size:48px; text-anchor:end;" transform="rotate(0, 144.627, 1464.21)" x="144.627" y="1464.21">-10</text>
</g>
<g clip-path="url(#clip5800)">
<text style="fill:#000000; fill-opacity:1; font-family:Arial,Helvetica Neue,Helvetica,sans-serif; font-size:48px; text-anchor:end;" transform="rotate(0, 144.627, 1124.54)" x="144.627" y="1124.54">-5</text>
</g>
<g clip-path="url(#clip5800)">
<text style="fill:#000000; fill-opacity:1; font-family:Arial,Helvetica Neue,Helvetica,sans-serif; font-size:48px; text-anchor:end;" transform="rotate(0, 144.627, 784.859)" x="144.627" y="784.859">0</text>
</g>
<g clip-path="url(#clip5800)">
<text style="fill:#000000; fill-opacity:1; font-family:Arial,Helvetica Neue,Helvetica,sans-serif; font-size:48px; text-anchor:end;" transform="rotate(0, 144.627, 445.182)" x="144.627" y="445.182">5</text>
</g>
<g clip-path="url(#clip5800)">
<text style="fill:#000000; fill-opacity:1; font-family:Arial,Helvetica Neue,Helvetica,sans-serif; font-size:48px; text-anchor:end;" transform="rotate(0, 144.627, 105.505)" x="144.627" y="105.505">10</text>
</g>
<path clip-path="url(#clip5802)" d="
M223.649 1446.71 L223.649 1446.71 L315.354 1446.71 L407.058 1446.71 L498.762 1446.71 L590.466 1446.71 L682.17 1446.71 L773.875 1446.71 L865.579 1446.71 L957.283 1446.71 
  L1048.99 1446.71 L1140.69 1446.71 L1232.4 1446.71 L1324.1 1446.71 L1415.8 1446.71 L1507.51 1446.71 L1599.21 1446.71 L1690.92 1446.71 L1782.62 1446.71 L1874.32 1446.71 
  L1966.03 1446.71 L2057.73 1446.71 L2057.73 1446.71 L2057.73 1446.71 L2057.73 1446.71 L2057.73 1378.78 L2057.73 1310.84 L2057.73 1242.91 L2057.73 1174.97 L2057.73 1107.04 
  L2057.73 1039.1 L2057.73 971.166 L2057.73 903.23 L2057.73 835.295 L2057.73 767.359 L2057.73 699.424 L2057.73 631.489 L2057.73 563.553 L2057.73 495.618 L2057.73 427.682 
  L2057.73 359.747 L2057.73 291.812 L2057.73 223.876 L2057.73 155.941 L2057.73 88.0053 L2057.73 88.0053 L2057.73 88.0053 L2057.73 88.0053 L1966.03 88.0053 L1874.32 88.0053 
  L1782.62 88.0053 L1690.92 88.0053 L1599.21 88.0053 L1507.51 88.0053 L1415.8 88.0053 L1324.1 88.0053 L1232.4 88.0053 L1140.69 88.0053 L1048.99 88.0053 L957.283 88.0053 
  L865.579 88.0053 L773.875 88.0053 L682.17 88.0053 L590.466 88.0053 L498.762 88.0053 L407.058 88.0053 L315.354 88.0053 L223.649 88.0053 L223.649 88.0053 L223.649 88.0053 
  L223.649 88.0053 L223.649 155.941 L223.649 223.876 L223.649 291.812 L223.649 359.747 L223.649 427.682 L223.649 495.618 L223.649 563.553 L223.649 631.489 L223.649 699.424 
  L223.649 767.359 L223.649 835.295 L223.649 903.23 L223.649 971.166 L223.649 1039.1 L223.649 1107.04 L223.649 1174.97 L223.649 1242.91 L223.649 1310.84 L223.649 1378.78 
  L223.649 1446.71 L223.649 1446.71 L223.649 1446.71  Z
  " fill="#add8e6" fill-rule="evenodd" fill-opacity="1"/>
<path clip-path="url(#clip5802)" d="
M223.649 1446.71 L223.649 1446.71 L315.354 1446.71 L407.058 1446.71 L498.762 1446.71 L590.466 1446.71 L682.17 1446.71 L773.875 1446.71 L773.875 1446.71 L819.727 1446.71 
  L865.579 1434.2 L957.283 1416.32 L1048.99 1405.59 L1140.69 1402.02 L1232.4 1405.59 L1324.1 1416.32 L1415.8 1434.2 L1461.66 1446.71 L1415.8 1446.71 L1507.51 1446.71 
  L1599.21 1446.71 L1690.92 1446.71 L1782.62 1446.71 L1874.32 1446.71 L1966.03 1446.71 L2057.73 1446.71 L2057.73 1446.71 L2057.73 1446.71 L2057.73 1446.71 L2057.73 1378.78 
  L2057.73 1310.84 L2057.73 1242.91 L2057.73 1174.97 L2057.73 1107.04 L2057.73 1039.1 L2057.73 971.166 L2057.73 903.23 L2057.73 835.295 L2057.73 767.359 L2057.73 699.424 
  L2057.73 631.489 L2057.73 563.553 L2057.73 495.618 L2057.73 427.682 L2057.73 359.747 L2057.73 291.812 L2057.73 223.876 L2057.73 155.941 L2057.73 88.0053 L2057.73 88.0053 
  L2057.73 88.0053 L2057.73 88.0053 L1966.03 88.0053 L1874.32 88.0053 L1782.62 88.0053 L1690.92 88.0053 L1599.21 88.0053 L1507.51 88.0053 L1415.8 88.0053 L1461.66 88.0053 
  L1415.8 100.52 L1324.1 118.397 L1232.4 129.124 L1140.69 132.7 L1048.99 129.124 L957.283 118.397 L865.579 100.52 L819.727 88.0053 L773.875 88.0053 L773.875 88.0053 
  L682.17 88.0053 L590.466 88.0053 L498.762 88.0053 L407.058 88.0053 L315.354 88.0053 L223.649 88.0053 L223.649 88.0053 L223.649 88.0053 L223.649 88.0053 L223.649 155.941 
  L223.649 223.876 L223.649 291.812 L223.649 359.747 L223.649 427.682 L223.649 495.618 L223.649 563.553 L223.649 631.489 L223.649 699.424 L223.649 767.359 L223.649 835.295 
  L223.649 903.23 L223.649 971.166 L223.649 1039.1 L223.649 1107.04 L223.649 1174.97 L223.649 1242.91 L223.649 1310.84 L223.649 1378.78 L223.649 1446.71 L223.649 1446.71 
  L223.649 1446.71  Z
  " fill="#a1c9df" fill-rule="evenodd" fill-opacity="1"/>
<path clip-path="url(#clip5802)" d="
M223.649 1446.71 L223.649 1446.71 L315.354 1446.71 L407.058 1446.71 L498.762 1446.71 L590.466 1446.71 L682.17 1446.71 L682.17 1446.71 L682.17 1446.71 L773.875 1414.53 
  L865.579 1389.5 L920.601 1378.78 L957.283 1370.79 L1048.99 1358.8 L1140.69 1354.8 L1232.4 1358.8 L1324.1 1370.79 L1360.78 1378.78 L1415.8 1389.5 L1507.51 1414.53 
  L1599.21 1446.71 L1507.51 1446.71 L1599.21 1446.71 L1690.92 1446.71 L1782.62 1446.71 L1874.32 1446.71 L1966.03 1446.71 L2057.73 1446.71 L2057.73 1446.71 L2057.73 1446.71 
  L2057.73 1446.71 L2057.73 1378.78 L2057.73 1310.84 L2057.73 1242.91 L2057.73 1174.97 L2057.73 1107.04 L2057.73 1039.1 L2057.73 971.166 L2057.73 903.23 L2057.73 835.295 
  L2057.73 767.359 L2057.73 699.424 L2057.73 631.489 L2057.73 563.553 L2057.73 495.618 L2057.73 427.682 L2057.73 359.747 L2057.73 291.812 L2057.73 223.876 L2057.73 155.941 
  L2057.73 88.0053 L2057.73 88.0053 L2057.73 88.0053 L2057.73 88.0053 L1966.03 88.0053 L1874.32 88.0053 L1782.62 88.0053 L1690.92 88.0053 L1599.21 88.0053 L1507.51 88.0053 
  L1599.21 88.0053 L1507.51 120.185 L1415.8 145.214 L1360.78 155.941 L1324.1 163.933 L1232.4 175.922 L1140.69 179.918 L1048.99 175.922 L957.283 163.933 L920.601 155.941 
  L865.579 145.214 L773.875 120.185 L682.17 88.0053 L682.17 88.0053 L682.17 88.0053 L590.466 88.0053 L498.762 88.0053 L407.058 88.0053 L315.354 88.0053 L223.649 88.0053 
  L223.649 88.0053 L223.649 88.0053 L223.649 88.0053 L223.649 155.941 L223.649 223.876 L223.649 291.812 L223.649 359.747 L223.649 427.682 L223.649 495.618 L223.649 563.553 
  L223.649 631.489 L223.649 699.424 L223.649 767.359 L223.649 835.295 L223.649 903.23 L223.649 971.166 L223.649 1039.1 L223.649 1107.04 L223.649 1174.97 L223.649 1242.91 
  L223.649 1310.84 L223.649 1378.78 L223.649 1446.71 L223.649 1446.71 L223.649 1446.71  Z
  " fill="#95bbd9" fill-rule="evenodd" fill-opacity="1"/>
<path clip-path="url(#clip5802)" d="
M223.649 1446.71 L223.649 1446.71 L315.354 1446.71 L407.058 1446.71 L498.762 1446.71 L498.762 1446.71 L579.885 1446.71 L590.466 1441.35 L682.17 1402.02 L748.401 1378.78 
  L773.875 1368.79 L865.579 1340.81 L957.283 1320.83 L1033.7 1310.84 L1048.99 1308.58 L1140.69 1304.05 L1232.4 1308.58 L1247.68 1310.84 L1324.1 1320.83 L1415.8 1340.81 
  L1507.51 1368.79 L1532.98 1378.78 L1599.21 1402.02 L1690.92 1441.35 L1701.5 1446.71 L1690.92 1446.71 L1782.62 1446.71 L1874.32 1446.71 L1966.03 1446.71 L2057.73 1446.71 
  L2057.73 1446.71 L2057.73 1446.71 L2057.73 1446.71 L2057.73 1378.78 L2057.73 1310.84 L2057.73 1242.91 L2057.73 1174.97 L2057.73 1107.04 L2057.73 1039.1 L2057.73 971.166 
  L2057.73 903.23 L2057.73 835.295 L2057.73 767.359 L2057.73 699.424 L2057.73 631.489 L2057.73 563.553 L2057.73 495.618 L2057.73 427.682 L2057.73 359.747 L2057.73 291.812 
  L2057.73 223.876 L2057.73 155.941 L2057.73 88.0053 L2057.73 88.0053 L2057.73 88.0053 L2057.73 88.0053 L1966.03 88.0053 L1874.32 88.0053 L1782.62 88.0053 L1690.92 88.0053 
  L1701.5 88.0053 L1690.92 93.3687 L1599.21 132.7 L1532.98 155.941 L1507.51 165.931 L1415.8 193.905 L1324.1 213.886 L1247.68 223.876 L1232.4 226.141 L1140.69 230.67 
  L1048.99 226.141 L1033.7 223.876 L957.283 213.886 L865.579 193.905 L773.875 165.931 L748.401 155.941 L682.17 132.7 L590.466 93.3687 L579.885 88.0053 L498.762 88.0053 
  L498.762 88.0053 L407.058 88.0053 L315.354 88.0053 L223.649 88.0053 L223.649 88.0053 L223.649 88.0053 L223.649 88.0053 L223.649 155.941 L223.649 223.876 L223.649 291.812 
  L223.649 359.747 L223.649 427.682 L223.649 495.618 L223.649 563.553 L223.649 631.489 L223.649 699.424 L223.649 767.359 L223.649 835.295 L223.649 903.23 L223.649 971.166 
  L223.649 1039.1 L223.649 1107.04 L223.649 1174.97 L223.649 1242.91 L223.649 1310.84 L223.649 1378.78 L223.649 1446.71 L223.649 1446.71 L223.649 1446.71  Z
  " fill="#8aacd3" fill-rule="evenodd" fill-opacity="1"/>
<path clip-path="url(#clip5802)" d="
M223.649 1446.71 L223.649 1446.71 L315.354 1446.71 L407.058 1446.71 L407.058 1446.71 L492.648 1446.71 L498.762 1443.14 L590.466 1396.66 L632.15 1378.78 L682.17 1354.8 
  L773.875 1318.84 L800.076 1310.84 L865.579 1288.2 L957.283 1265.55 L1048.99 1251.97 L1140.69 1247.44 L1232.4 1251.97 L1324.1 1265.55 L1415.8 1288.2 L1481.31 1310.84 
  L1507.51 1318.84 L1599.21 1354.8 L1649.23 1378.78 L1690.92 1396.66 L1782.62 1443.14 L1788.73 1446.71 L1782.62 1446.71 L1874.32 1446.71 L1966.03 1446.71 L2057.73 1446.71 
  L2057.73 1446.71 L2057.73 1446.71 L2057.73 1446.71 L2057.73 1378.78 L2057.73 1310.84 L2057.73 1242.91 L2057.73 1174.97 L2057.73 1107.04 L2057.73 1039.1 L2057.73 971.166 
  L2057.73 903.23 L2057.73 835.295 L2057.73 767.359 L2057.73 699.424 L2057.73 631.489 L2057.73 563.553 L2057.73 495.618 L2057.73 427.682 L2057.73 359.747 L2057.73 291.812 
  L2057.73 223.876 L2057.73 155.941 L2057.73 88.0053 L2057.73 88.0053 L2057.73 88.0053 L2057.73 88.0053 L1966.03 88.0053 L1874.32 88.0053 L1782.62 88.0053 L1788.73 88.0053 
  L1782.62 91.5809 L1690.92 138.063 L1649.23 155.941 L1599.21 179.918 L1507.51 215.884 L1481.31 223.876 L1415.8 246.521 L1324.1 269.166 L1232.4 282.754 L1140.69 287.283 
  L1048.99 282.754 L957.283 269.166 L865.579 246.521 L800.076 223.876 L773.875 215.884 L682.17 179.918 L632.15 155.941 L590.466 138.063 L498.762 91.5809 L492.648 88.0053 
  L407.058 88.0053 L407.058 88.0053 L315.354 88.0053 L223.649 88.0053 L223.649 88.0053 L223.649 88.0053 L223.649 88.0053 L223.649 155.941 L223.649 223.876 L223.649 291.812 
  L223.649 359.747 L223.649 427.682 L223.649 495.618 L223.649 563.553 L223.649 631.489 L223.649 699.424 L223.649 767.359 L223.649 835.295 L223.649 903.23 L223.649 971.166 
  L223.649 1039.1 L223.649 1107.04 L223.649 1174.97 L223.649 1242.91 L223.649 1310.84 L223.649 1378.78 L223.649 1446.71 L223.649 1446.71 L223.649 1446.71  Z
  " fill="#7e9ecd" fill-rule="evenodd" fill-opacity="1"/>
<path clip-path="url(#clip5802)" d="
M223.649 1446.71 L223.649 1446.71 L315.354 1446.71 L407.058 1446.71 L407.058 1446.71 L416.228 1446.71 L498.762 1398.44 L537.56 1378.78 L590.466 1348.81 L669.665 1310.84 
  L682.17 1304.05 L773.875 1263.29 L832.827 1242.91 L865.579 1229.84 L957.283 1203.71 L1048.99 1188.04 L1140.69 1182.81 L1232.4 1188.04 L1324.1 1203.71 L1415.8 1229.84 
  L1448.56 1242.91 L1507.51 1263.29 L1599.21 1304.05 L1611.72 1310.84 L1690.92 1348.81 L1743.82 1378.78 L1782.62 1398.44 L1865.15 1446.71 L1782.62 1446.71 L1874.32 1446.71 
  L1966.03 1446.71 L2057.73 1446.71 L2057.73 1446.71 L2057.73 1446.71 L2057.73 1446.71 L2057.73 1378.78 L2057.73 1310.84 L2057.73 1242.91 L2057.73 1174.97 L2057.73 1107.04 
  L2057.73 1039.1 L2057.73 971.166 L2057.73 903.23 L2057.73 835.295 L2057.73 767.359 L2057.73 699.424 L2057.73 631.489 L2057.73 563.553 L2057.73 495.618 L2057.73 427.682 
  L2057.73 359.747 L2057.73 291.812 L2057.73 223.876 L2057.73 155.941 L2057.73 88.0053 L2057.73 88.0053 L2057.73 88.0053 L2057.73 88.0053 L1966.03 88.0053 L1874.32 88.0053 
  L1782.62 88.0053 L1865.15 88.0053 L1782.62 136.275 L1743.82 155.941 L1690.92 185.912 L1611.72 223.876 L1599.21 230.67 L1507.51 271.431 L1448.56 291.812 L1415.8 304.876 
  L1324.1 331.005 L1232.4 346.682 L1140.69 351.908 L1048.99 346.682 L957.283 331.005 L865.579 304.876 L832.827 291.812 L773.875 271.431 L682.17 230.67 L669.665 223.876 
  L590.466 185.912 L537.56 155.941 L498.762 136.275 L416.228 88.0053 L407.058 88.0053 L407.058 88.0053 L315.354 88.0053 L223.649 88.0053 L223.649 88.0053 L223.649 88.0053 
  L223.649 88.0053 L223.649 155.941 L223.649 223.876 L223.649 291.812 L223.649 359.747 L223.649 427.682 L223.649 495.618 L223.649 563.553 L223.649 631.489 L223.649 699.424 
  L223.649 767.359 L223.649 835.295 L223.649 903.23 L223.649 971.166 L223.649 1039.1 L223.649 1107.04 L223.649 1174.97 L223.649 1242.91 L223.649 1310.84 L223.649 1378.78 
  L223.649 1446.71 L223.649 1446.71 L223.649 1446.71  Z
  " fill="#7390c7" fill-rule="evenodd" fill-opacity="1"/>
<path clip-path="url(#clip5802)" d="
M223.649 1446.71 L223.649 1446.71 L315.354 1446.71 L315.354 1446.71 L347.72 1446.71 L407.058 1407.38 L455.967 1378.78 L498.762 1350.8 L569.304 1310.84 L590.466 1297.26 
  L682.17 1247.44 L692.36 1242.91 L773.875 1201.1 L839.378 1174.97 L865.579 1162.62 L957.283 1131.74 L1048.99 1113.21 L1140.69 1107.04 L1232.4 1113.21 L1324.1 1131.74 
  L1415.8 1162.62 L1442.01 1174.97 L1507.51 1201.1 L1589.02 1242.91 L1599.21 1247.44 L1690.92 1297.26 L1712.08 1310.84 L1782.62 1350.8 L1825.42 1378.78 L1874.32 1407.38 
  L1933.66 1446.71 L1874.32 1446.71 L1966.03 1446.71 L2057.73 1446.71 L2057.73 1446.71 L2057.73 1446.71 L2057.73 1446.71 L2057.73 1378.78 L2057.73 1310.84 L2057.73 1242.91 
  L2057.73 1174.97 L2057.73 1107.04 L2057.73 1039.1 L2057.73 971.166 L2057.73 903.23 L2057.73 835.295 L2057.73 767.359 L2057.73 699.424 L2057.73 631.489 L2057.73 563.553 
  L2057.73 495.618 L2057.73 427.682 L2057.73 359.747 L2057.73 291.812 L2057.73 223.876 L2057.73 155.941 L2057.73 88.0053 L2057.73 88.0053 L2057.73 88.0053 L2057.73 88.0053 
  L1966.03 88.0053 L1874.32 88.0053 L1933.66 88.0053 L1874.32 127.336 L1825.42 155.941 L1782.62 183.914 L1712.08 223.876 L1690.92 237.463 L1599.21 287.283 L1589.02 291.812 
  L1507.51 333.618 L1442.01 359.747 L1415.8 372.099 L1324.1 402.979 L1232.4 421.506 L1140.69 427.682 L1048.99 421.506 L957.283 402.979 L865.579 372.099 L839.378 359.747 
  L773.875 333.618 L692.36 291.812 L682.17 287.283 L590.466 237.463 L569.304 223.876 L498.762 183.914 L455.967 155.941 L407.058 127.336 L347.72 88.0053 L315.354 88.0053 
  L315.354 88.0053 L223.649 88.0053 L223.649 88.0053 L223.649 88.0053 L223.649 88.0053 L223.649 155.941 L223.649 223.876 L223.649 291.812 L223.649 359.747 L223.649 427.682 
  L223.649 495.618 L223.649 563.553 L223.649 631.489 L223.649 699.424 L223.649 767.359 L223.649 835.295 L223.649 903.23 L223.649 971.166 L223.649 1039.1 L223.649 1107.04 
  L223.649 1174.97 L223.649 1242.91 L223.649 1310.84 L223.649 1378.78 L223.649 1446.71 L223.649 1446.71 L223.649 1446.71  Z
  " fill="#6781c1" fill-rule="evenodd" fill-opacity="1"/>
<path clip-path="url(#clip5802)" d="
M223.649 1446.71 L223.649 1446.71 L223.649 1446.71 L283.981 1446.71 L315.354 1423.47 L382.783 1378.78 L407.058 1360.8 L483.478 1310.84 L498.762 1299.52 L586.939 1242.91 
  L590.466 1240.29 L682.17 1182.81 L697.454 1174.97 L773.875 1128.65 L819.727 1107.04 L865.579 1080.62 L957.283 1042.88 L972.567 1039.1 L1048.99 1014.84 L1140.69 1005.13 
  L1232.4 1014.84 L1308.82 1039.1 L1324.1 1042.88 L1415.8 1080.62 L1461.66 1107.04 L1507.51 1128.65 L1583.93 1174.97 L1599.21 1182.81 L1690.92 1240.29 L1694.44 1242.91 
  L1782.62 1299.52 L1797.9 1310.84 L1874.32 1360.8 L1898.6 1378.78 L1966.03 1423.47 L1997.4 1446.71 L1966.03 1446.71 L2057.73 1446.71 L2057.73 1446.71 L2057.73 1446.71 
  L2057.73 1446.71 L2057.73 1378.78 L2057.73 1310.84 L2057.73 1242.91 L2057.73 1174.97 L2057.73 1107.04 L2057.73 1039.1 L2057.73 971.166 L2057.73 903.23 L2057.73 835.295 
  L2057.73 767.359 L2057.73 699.424 L2057.73 631.489 L2057.73 563.553 L2057.73 495.618 L2057.73 427.682 L2057.73 359.747 L2057.73 291.812 L2057.73 223.876 L2057.73 155.941 
  L2057.73 88.0053 L2057.73 88.0053 L2057.73 88.0053 L2057.73 88.0053 L1966.03 88.0053 L1997.4 88.0053 L1966.03 111.246 L1898.6 155.941 L1874.32 173.924 L1797.9 223.876 
  L1782.62 235.199 L1694.44 291.812 L1690.92 294.424 L1599.21 351.908 L1583.93 359.747 L1507.51 406.067 L1461.66 427.682 L1415.8 454.102 L1324.1 491.844 L1308.82 495.618 
  L1232.4 519.88 L1140.69 529.585 L1048.99 519.88 L972.567 495.618 L957.283 491.844 L865.579 454.102 L819.727 427.682 L773.875 406.067 L697.454 359.747 L682.17 351.908 
  L590.466 294.424 L586.939 291.812 L498.762 235.199 L483.478 223.876 L407.058 173.924 L382.783 155.941 L315.354 111.246 L283.981 88.0053 L223.649 88.0053 L223.649 88.0053 
  L223.649 88.0053 L223.649 88.0053 L223.649 88.0053 L223.649 155.941 L223.649 223.876 L223.649 291.812 L223.649 359.747 L223.649 427.682 L223.649 495.618 L223.649 563.553 
  L223.649 631.489 L223.649 699.424 L223.649 767.359 L223.649 835.295 L223.649 903.23 L223.649 971.166 L223.649 1039.1 L223.649 1107.04 L223.649 1174.97 L223.649 1242.91 
  L223.649 1310.84 L223.649 1378.78 L223.649 1446.71 L223.649 1446.71 L223.649 1446.71  Z
  " fill="#5c73bb" fill-rule="evenodd" fill-opacity="1"/>
<path clip-path="url(#clip5802)" d="
M223.649 1446.71 L223.649 1446.71 L223.649 1446.71 L223.649 1446.71 L315.354 1378.78 L315.354 1378.78 L407.058 1310.84 L407.058 1310.84 L498.762 1242.91 L498.762 1242.91 
  L590.466 1174.97 L590.466 1174.97 L682.17 1107.04 L682.17 1107.04 L773.875 1039.1 L773.875 1039.1 L865.579 971.166 L865.579 971.166 L957.283 903.23 L957.283 903.23 
  L1048.99 835.295 L1048.99 835.295 L1140.69 767.359 L1232.4 835.295 L1232.4 835.295 L1324.1 903.23 L1324.1 903.23 L1415.8 971.166 L1415.8 971.166 L1507.51 1039.1 
  L1507.51 1039.1 L1599.21 1107.04 L1599.21 1107.04 L1690.92 1174.97 L1690.92 1174.97 L1782.62 1242.91 L1782.62 1242.91 L1874.32 1310.84 L1874.32 1310.84 L1966.03 1378.78 
  L1966.03 1378.78 L2057.73 1446.71 L1966.03 1446.71 L2057.73 1446.71 L2057.73 1446.71 L2057.73 1446.71 L2057.73 1446.71 L2057.73 1378.78 L2057.73 1310.84 L2057.73 1242.91 
  L2057.73 1174.97 L2057.73 1107.04 L2057.73 1039.1 L2057.73 971.166 L2057.73 903.23 L2057.73 835.295 L2057.73 767.359 L2057.73 699.424 L2057.73 631.489 L2057.73 563.553 
  L2057.73 495.618 L2057.73 427.682 L2057.73 359.747 L2057.73 291.812 L2057.73 223.876 L2057.73 155.941 L2057.73 88.0053 L2057.73 88.0053 L2057.73 88.0053 L2057.73 88.0053 
  L1966.03 88.0053 L2057.73 88.0053 L1966.03 155.941 L1966.03 155.941 L1874.32 223.876 L1874.32 223.876 L1782.62 291.812 L1782.62 291.812 L1690.92 359.747 L1690.92 359.747 
  L1599.21 427.682 L1599.21 427.682 L1507.51 495.618 L1507.51 495.618 L1415.8 563.553 L1415.8 563.553 L1324.1 631.489 L1324.1 631.489 L1232.4 699.424 L1232.4 699.424 
  L1140.69 767.359 L1048.99 699.424 L1048.99 699.424 L957.283 631.489 L957.283 631.489 L865.579 563.553 L865.579 563.553 L773.875 495.618 L773.875 495.618 L682.17 427.682 
  L682.17 427.682 L590.466 359.747 L590.466 359.747 L498.762 291.812 L498.762 291.812 L407.058 223.876 L407.058 223.876 L315.354 155.941 L315.354 155.941 L223.649 88.0053 
  L223.649 88.0053 L223.649 88.0053 L223.649 88.0053 L223.649 88.0053 L223.649 88.0053 L223.649 155.941 L223.649 223.876 L223.649 291.812 L223.649 359.747 L223.649 427.682 
  L223.649 495.618 L223.649 563.553 L223.649 631.489 L223.649 699.424 L223.649 767.359 L223.649 835.295 L223.649 903.23 L223.649 971.166 L223.649 1039.1 L223.649 1107.04 
  L223.649 1174.97 L223.649 1242.91 L223.649 1310.84 L223.649 1378.78 L223.649 1446.71 L223.649 1446.71 L223.649 1446.71  Z
  " fill="#5064b5" fill-rule="evenodd" fill-opacity="1"/>
<path clip-path="url(#clip5802)" d="
M223.649 1446.71 L223.649 1402.02 L255.022 1378.78 L315.354 1328.83 L339.628 1310.84 L407.058 1254.23 L422.342 1242.91 L498.762 1177.58 L502.289 1174.97 L579.885 1107.04 
  L590.466 1095.71 L652.992 1039.1 L682.17 1005.13 L717.833 971.166 L768.78 903.23 L773.875 891.908 L806.626 835.295 L819.727 767.359 L806.626 699.424 L773.875 642.811 
  L768.78 631.489 L717.833 563.553 L682.17 529.585 L652.992 495.618 L590.466 439.005 L579.885 427.682 L502.289 359.747 L498.762 357.134 L422.342 291.812 L407.058 280.489 
  L339.628 223.876 L315.354 205.893 L255.022 155.941 L223.649 132.7 L223.649 155.941 L223.649 155.941 L223.649 223.876 L223.649 291.812 L223.649 359.747 L223.649 427.682 
  L223.649 495.618 L223.649 563.553 L223.649 631.489 L223.649 699.424 L223.649 767.359 L223.649 835.295 L223.649 903.23 L223.649 971.166 L223.649 1039.1 L223.649 1107.04 
  L223.649 1174.97 L223.649 1242.91 L223.649 1310.84 L223.649 1378.78 L223.649 1446.71 M2057.73 1402.02 L2057.73 1446.71 L2057.73 1378.78 L2057.73 1310.84 
  L2057.73 1242.91 L2057.73 1174.97 L2057.73 1107.04 L2057.73 1039.1 L2057.73 971.166 L2057.73 903.23 L2057.73 835.295 L2057.73 767.359 L2057.73 699.424 L2057.73 631.489 
  L2057.73 563.553 L2057.73 495.618 L2057.73 427.682 L2057.73 359.747 L2057.73 291.812 L2057.73 223.876 L2057.73 155.941 L2057.73 155.941 L2057.73 132.7 L2026.36 155.941 
  L1966.03 205.893 L1941.75 223.876 L1874.32 280.489 L1859.04 291.812 L1782.62 357.134 L1779.09 359.747 L1701.5 427.682 L1690.92 439.005 L1628.39 495.618 L1599.21 529.585 
  L1563.55 563.553 L1512.6 631.489 L1507.51 642.811 L1474.76 699.424 L1461.66 767.359 L1474.76 835.295 L1507.51 891.908 L1512.6 903.23 L1563.55 971.166 L1599.21 1005.13 
  L1628.39 1039.1 L1690.92 1095.71 L1701.5 1107.04 L1779.09 1174.97 L1782.62 1177.58 L1859.04 1242.91 L1874.32 1254.23 L1941.75 1310.84 L1966.03 1328.83 L2026.36 1378.78 
  L2057.73 1402.02  Z
  " fill="#4556af" fill-rule="evenodd" fill-opacity="1"/>
<path clip-path="url(#clip5802)" d="
M223.649 1378.78 L223.649 1354.8 L276.741 1310.84 L315.354 1274.61 L353.114 1242.91 L407.058 1190.65 L425.399 1174.97 L492.648 1107.04 L498.762 1099.49 L555.195 1039.1 
  L590.466 990.576 L607.14 971.166 L648.823 903.23 L673.834 835.295 L682.17 767.359 L682.17 767.359 L682.17 767.359 L673.834 699.424 L648.823 631.489 L607.14 563.553 
  L590.466 544.143 L555.195 495.618 L498.762 435.231 L492.648 427.682 L425.399 359.747 L407.058 344.07 L353.114 291.812 L315.354 260.108 L276.741 223.876 L223.649 179.918 
  L223.649 223.876 L223.649 223.876 L223.649 291.812 L223.649 359.747 L223.649 427.682 L223.649 495.618 L223.649 563.553 L223.649 631.489 L223.649 699.424 L223.649 767.359 
  L223.649 835.295 L223.649 903.23 L223.649 971.166 L223.649 1039.1 L223.649 1107.04 L223.649 1174.97 L223.649 1242.91 L223.649 1310.84 L223.649 1378.78 M2057.73 1354.8 L2057.73 1378.78 L2057.73 1310.84 L2057.73 1242.91 L2057.73 1174.97 L2057.73 1107.04 L2057.73 1039.1 L2057.73 971.166 L2057.73 903.23 L2057.73 835.295 
  L2057.73 767.359 L2057.73 699.424 L2057.73 631.489 L2057.73 563.553 L2057.73 495.618 L2057.73 427.682 L2057.73 359.747 L2057.73 291.812 L2057.73 223.876 L2057.73 223.876 
  L2057.73 179.918 L2004.64 223.876 L1966.03 260.108 L1928.27 291.812 L1874.32 344.07 L1855.98 359.747 L1788.73 427.682 L1782.62 435.231 L1726.19 495.618 L1690.92 544.143 
  L1674.24 563.553 L1632.56 631.489 L1607.55 699.424 L1599.21 767.359 L1599.21 767.359 L1599.21 767.359 L1607.55 835.295 L1632.56 903.23 L1674.24 971.166 L1690.92 990.576 
  L1726.19 1039.1 L1782.62 1099.49 L1788.73 1107.04 L1855.98 1174.97 L1874.32 1190.65 L1928.27 1242.91 L1966.03 1274.61 L2004.64 1310.84 L2057.73 1354.8  Z
  " fill="#3948a9" fill-rule="evenodd" fill-opacity="1"/>
<path clip-path="url(#clip5802)" d="
M223.649 1310.84 L223.649 1304.05 L288.808 1242.91 L315.354 1214.17 L355.811 1174.97 L407.058 1116.3 L416.228 1107.04 L471.251 1039.1 L498.762 995.428 L516.397 971.166 
  L551.668 903.23 L572.831 835.295 L579.885 767.359 L572.831 699.424 L551.668 631.489 L516.397 563.553 L498.762 539.291 L471.251 495.618 L416.228 427.682 L407.058 418.418 
  L355.811 359.747 L315.354 320.553 L288.808 291.812 L223.649 230.67 L223.649 291.812 L223.649 291.812 L223.649 359.747 L223.649 427.682 L223.649 495.618 L223.649 563.553 
  L223.649 631.489 L223.649 699.424 L223.649 767.359 L223.649 835.295 L223.649 903.23 L223.649 971.166 L223.649 1039.1 L223.649 1107.04 L223.649 1174.97 L223.649 1242.91 
  L223.649 1310.84 M2057.73 1304.05 L2057.73 1310.84 L2057.73 1242.91 L2057.73 1174.97 L2057.73 1107.04 L2057.73 1039.1 L2057.73 971.166 L2057.73 903.23 
  L2057.73 835.295 L2057.73 767.359 L2057.73 699.424 L2057.73 631.489 L2057.73 563.553 L2057.73 495.618 L2057.73 427.682 L2057.73 359.747 L2057.73 291.812 L2057.73 291.812 
  L2057.73 230.67 L1992.58 291.812 L1966.03 320.553 L1925.57 359.747 L1874.32 418.418 L1865.15 427.682 L1810.13 495.618 L1782.62 539.291 L1764.99 563.553 L1729.71 631.489 
  L1708.55 699.424 L1701.5 767.359 L1708.55 835.295 L1729.71 903.23 L1764.99 971.166 L1782.62 995.428 L1810.13 1039.1 L1865.15 1107.04 L1874.32 1116.3 L1925.57 1174.97 
  L1966.03 1214.17 L1992.58 1242.91 L2057.73 1304.05  Z
  " fill="#2e39a3" fill-rule="evenodd" fill-opacity="1"/>
<path clip-path="url(#clip5802)" d="
M223.649 1310.84 L223.649 1247.44 L228.476 1242.91 L291.221 1174.97 L315.354 1144.09 L347.72 1107.04 L396.269 1039.1 L407.058 1019.69 L437.626 971.166 L468.194 903.23 
  L486.535 835.295 L492.648 767.359 L486.535 699.424 L468.194 631.489 L437.626 563.553 L407.058 515.028 L396.269 495.618 L347.72 427.682 L315.354 390.627 L291.221 359.747 
  L228.476 291.812 L223.649 287.283 L223.649 291.812 L223.649 291.812 L223.649 359.747 L223.649 427.682 L223.649 495.618 L223.649 563.553 L223.649 631.489 L223.649 699.424 
  L223.649 767.359 L223.649 835.295 L223.649 903.23 L223.649 971.166 L223.649 1039.1 L223.649 1107.04 L223.649 1174.97 L223.649 1242.91 L223.649 1310.84 M2057.73 1247.44 L2057.73 1310.84 L2057.73 1242.91 L2057.73 1174.97 L2057.73 1107.04 L2057.73 1039.1 L2057.73 971.166 L2057.73 903.23 L2057.73 835.295 L2057.73 767.359 
  L2057.73 699.424 L2057.73 631.489 L2057.73 563.553 L2057.73 495.618 L2057.73 427.682 L2057.73 359.747 L2057.73 291.812 L2057.73 291.812 L2057.73 287.283 L2052.91 291.812 
  L1990.16 359.747 L1966.03 390.627 L1933.66 427.682 L1885.11 495.618 L1874.32 515.028 L1843.76 563.553 L1813.19 631.489 L1794.85 699.424 L1788.73 767.359 L1794.85 835.295 
  L1813.19 903.23 L1843.76 971.166 L1874.32 1019.69 L1885.11 1039.1 L1933.66 1107.04 L1966.03 1144.09 L1990.16 1174.97 L2052.91 1242.91 L2057.73 1247.44  Z
  " fill="#222b9d" fill-rule="evenodd" fill-opacity="1"/>
<path clip-path="url(#clip5802)" d="
M223.649 1242.91 L223.649 1182.81 L230.889 1174.97 L283.981 1107.04 L315.354 1057.97 L328.84 1039.1 L366.6 971.166 L393.572 903.23 L407.058 846.617 L410.115 835.295 
  L416.228 767.359 L410.115 699.424 L407.058 688.101 L393.572 631.489 L366.6 563.553 L328.84 495.618 L315.354 476.747 L283.981 427.682 L230.889 359.747 L223.649 351.908 
  L223.649 359.747 L223.649 359.747 L223.649 427.682 L223.649 495.618 L223.649 563.553 L223.649 631.489 L223.649 699.424 L223.649 767.359 L223.649 835.295 L223.649 903.23 
  L223.649 971.166 L223.649 1039.1 L223.649 1107.04 L223.649 1174.97 L223.649 1242.91 M2057.73 1182.81 L2057.73 1242.91 L2057.73 1174.97 L2057.73 1107.04 
  L2057.73 1039.1 L2057.73 971.166 L2057.73 903.23 L2057.73 835.295 L2057.73 767.359 L2057.73 699.424 L2057.73 631.489 L2057.73 563.553 L2057.73 495.618 L2057.73 427.682 
  L2057.73 359.747 L2057.73 359.747 L2057.73 351.908 L2050.49 359.747 L1997.4 427.682 L1966.03 476.747 L1952.54 495.618 L1914.78 563.553 L1887.81 631.489 L1874.32 688.101 
  L1871.27 699.424 L1865.15 767.359 L1871.27 835.295 L1874.32 846.617 L1887.81 903.23 L1914.78 971.166 L1952.54 1039.1 L1966.03 1057.97 L1997.4 1107.04 L2050.49 1174.97 
  L2057.73 1182.81  Z
  " fill="#171c97" fill-rule="evenodd" fill-opacity="1"/>
<path clip-path="url(#clip5802)" d="
M223.649 1174.97 L223.649 1107.04 L223.649 1107.04 L267.088 1039.1 L300.874 971.166 L315.354 930.404 L326.142 903.23 L342.325 835.295 L347.72 767.359 L342.325 699.424 
  L326.142 631.489 L315.354 604.314 L300.874 563.553 L267.088 495.618 L223.649 427.682 L223.649 427.682 L223.649 427.682 L223.649 427.682 L223.649 495.618 L223.649 563.553 
  L223.649 631.489 L223.649 699.424 L223.649 767.359 L223.649 835.295 L223.649 903.23 L223.649 971.166 L223.649 1039.1 L223.649 1107.04 L223.649 1174.97 M2057.73 1107.04 L2057.73 1174.97 L2057.73 1107.04 L2057.73 1039.1 L2057.73 971.166 L2057.73 903.23 L2057.73 835.295 L2057.73 767.359 L2057.73 699.424 L2057.73 631.489 
  L2057.73 563.553 L2057.73 495.618 L2057.73 427.682 L2057.73 427.682 L2057.73 427.682 L2057.73 427.682 L2014.29 495.618 L1980.51 563.553 L1966.03 604.314 L1955.24 631.489 
  L1939.06 699.424 L1933.66 767.359 L1939.06 835.295 L1955.24 903.23 L1966.03 930.404 L1980.51 971.166 L2014.29 1039.1 L2057.73 1107.04 L2057.73 1107.04  Z
  " fill="#0b0e91" fill-rule="evenodd" fill-opacity="1"/>
<path clip-path="url(#clip5802)" d="
M223.649 1039.1 L223.649 1005.13 L240.542 971.166 L264.675 903.23 L279.155 835.295 L283.981 767.359 L279.155 699.424 L264.675 631.489 L240.542 563.553 L223.649 529.585 
  L223.649 563.553 L223.649 563.553 L223.649 631.489 L223.649 699.424 L223.649 767.359 L223.649 835.295 L223.649 903.23 L223.649 971.166 L223.649 1039.1 M2057.73 1005.13 L2057.73 1039.1 L2057.73 971.166 L2057.73 903.23 L2057.73 835.295 L2057.73 767.359 L2057.73 699.424 L2057.73 631.489 L2057.73 563.553 L2057.73 563.553 
  L2057.73 529.585 L2040.84 563.553 L2016.71 631.489 L2002.23 699.424 L1997.4 767.359 L2002.23 835.295 L2016.71 903.23 L2040.84 971.166 L2057.73 1005.13  Z
  " fill="#00008b" fill-rule="evenodd" fill-opacity="1"/>
<polyline clip-path="url(#clip5802)" style="stroke:#000000; stroke-width:4; stroke-opacity:1; fill:none" points="
  223.649,1446.71 223.649,1446.71 315.354,1446.71 407.058,1446.71 498.762,1446.71 590.466,1446.71 682.17,1446.71 773.875,1446.71 865.579,1446.71 957.283,1446.71 
  1048.99,1446.71 1140.69,1446.71 1232.4,1446.71 1324.1,1446.71 1415.8,1446.71 1507.51,1446.71 1599.21,1446.71 1690.92,1446.71 1782.62,1446.71 1874.32,1446.71 
  1966.03,1446.71 2057.73,1446.71 2057.73,1378.78 2057.73,1310.84 2057.73,1242.91 2057.73,1174.97 2057.73,1107.04 
  2057.73,1039.1 2057.73,971.166 2057.73,903.23 2057.73,835.295 2057.73,767.359 2057.73,699.424 2057.73,631.489 2057.73,563.553 2057.73,495.618 2057.73,427.682 
  2057.73,359.747 2057.73,291.812 2057.73,223.876 2057.73,155.941 2057.73,88.0053 1966.03,88.0053 1874.32,88.0053 
  1782.62,88.0053 1690.92,88.0053 1599.21,88.0053 1507.51,88.0053 1415.8,88.0053 1324.1,88.0053 1232.4,88.0053 1140.69,88.0053 1048.99,88.0053 957.283,88.0053 
  865.579,88.0053 773.875,88.0053 682.17,88.0053 590.466,88.0053 498.762,88.0053 407.058,88.0053 315.354,88.0053 223.649,88.0053 
  223.649,155.941 223.649,223.876 223.649,291.812 223.649,359.747 223.649,427.682 223.649,495.618 223.649,563.553 223.649,631.489 223.649,699.424 
  223.649,767.359 223.649,835.295 223.649,903.23 223.649,971.166 223.649,1039.1 223.649,1107.04 223.649,1174.97 223.649,1242.91 223.649,1310.84 223.649,1378.78 
  223.649,1446.71 
  "/>
<polyline clip-path="url(#clip5802)" style="stroke:#000000; stroke-width:4; stroke-opacity:1; fill:none" points="
  223.649,1446.71 223.649,1446.71 315.354,1446.71 407.058,1446.71 498.762,1446.71 590.466,1446.71 682.17,1446.71 773.875,1446.71 819.727,1446.71 
  865.579,1434.2 957.283,1416.32 1048.99,1405.59 1140.69,1402.02 1232.4,1405.59 1324.1,1416.32 1415.8,1434.2 1461.66,1446.71 1415.8,1446.71 1507.51,1446.71 
  1599.21,1446.71 1690.92,1446.71 1782.62,1446.71 1874.32,1446.71 1966.03,1446.71 2057.73,1446.71 2057.73,1378.78 
  2057.73,1310.84 2057.73,1242.91 2057.73,1174.97 2057.73,1107.04 2057.73,1039.1 2057.73,971.166 2057.73,903.23 2057.73,835.295 2057.73,767.359 2057.73,699.424 
  2057.73,631.489 2057.73,563.553 2057.73,495.618 2057.73,427.682 2057.73,359.747 2057.73,291.812 2057.73,223.876 2057.73,155.941 2057.73,88.0053 
  1966.03,88.0053 1874.32,88.0053 1782.62,88.0053 1690.92,88.0053 1599.21,88.0053 1507.51,88.0053 1415.8,88.0053 1461.66,88.0053 
  1415.8,100.52 1324.1,118.397 1232.4,129.124 1140.69,132.7 1048.99,129.124 957.283,118.397 865.579,100.52 819.727,88.0053 773.875,88.0053 
  682.17,88.0053 590.466,88.0053 498.762,88.0053 407.058,88.0053 315.354,88.0053 223.649,88.0053 223.649,155.941 
  223.649,223.876 223.649,291.812 223.649,359.747 223.649,427.682 223.649,495.618 223.649,563.553 223.649,631.489 223.649,699.424 223.649,767.359 223.649,835.295 
  223.649,903.23 223.649,971.166 223.649,1039.1 223.649,1107.04 223.649,1174.97 223.649,1242.91 223.649,1310.84 223.649,1378.78 223.649,1446.71 
  
  "/>
<polyline clip-path="url(#clip5802)" style="stroke:#000000; stroke-width:4; stroke-opacity:1; fill:none" points="
  223.649,1446.71 223.649,1446.71 315.354,1446.71 407.058,1446.71 498.762,1446.71 590.466,1446.71 682.17,1446.71 773.875,1414.53 
  865.579,1389.5 920.601,1378.78 957.283,1370.79 1048.99,1358.8 1140.69,1354.8 1232.4,1358.8 1324.1,1370.79 1360.78,1378.78 1415.8,1389.5 1507.51,1414.53 
  1599.21,1446.71 1507.51,1446.71 1599.21,1446.71 1690.92,1446.71 1782.62,1446.71 1874.32,1446.71 1966.03,1446.71 2057.73,1446.71 
  2057.73,1378.78 2057.73,1310.84 2057.73,1242.91 2057.73,1174.97 2057.73,1107.04 2057.73,1039.1 2057.73,971.166 2057.73,903.23 2057.73,835.295 
  2057.73,767.359 2057.73,699.424 2057.73,631.489 2057.73,563.553 2057.73,495.618 2057.73,427.682 2057.73,359.747 2057.73,291.812 2057.73,223.876 2057.73,155.941 
  2057.73,88.0053 1966.03,88.0053 1874.32,88.0053 1782.62,88.0053 1690.92,88.0053 1599.21,88.0053 1507.51,88.0053 
  1599.21,88.0053 1507.51,120.185 1415.8,145.214 1360.78,155.941 1324.1,163.933 1232.4,175.922 1140.69,179.918 1048.99,175.922 957.283,163.933 920.601,155.941 
  865.579,145.214 773.875,120.185 682.17,88.0053 590.466,88.0053 498.762,88.0053 407.058,88.0053 315.354,88.0053 223.649,88.0053 
  223.649,155.941 223.649,223.876 223.649,291.812 223.649,359.747 223.649,427.682 223.649,495.618 223.649,563.553 
  223.649,631.489 223.649,699.424 223.649,767.359 223.649,835.295 223.649,903.23 223.649,971.166 223.649,1039.1 223.649,1107.04 223.649,1174.97 223.649,1242.91 
  223.649,1310.84 223.649,1378.78 223.649,1446.71 
  "/>
<polyline clip-path="url(#clip5802)" style="stroke:#000000; stroke-width:4; stroke-opacity:1; fill:none" points="
  223.649,1446.71 223.649,1446.71 315.354,1446.71 407.058,1446.71 498.762,1446.71 579.885,1446.71 590.466,1441.35 682.17,1402.02 748.401,1378.78 
  773.875,1368.79 865.579,1340.81 957.283,1320.83 1033.7,1310.84 1048.99,1308.58 1140.69,1304.05 1232.4,1308.58 1247.68,1310.84 1324.1,1320.83 1415.8,1340.81 
  1507.51,1368.79 1532.98,1378.78 1599.21,1402.02 1690.92,1441.35 1701.5,1446.71 1690.92,1446.71 1782.62,1446.71 1874.32,1446.71 1966.03,1446.71 2057.73,1446.71 
  2057.73,1378.78 2057.73,1310.84 2057.73,1242.91 2057.73,1174.97 2057.73,1107.04 2057.73,1039.1 2057.73,971.166 
  2057.73,903.23 2057.73,835.295 2057.73,767.359 2057.73,699.424 2057.73,631.489 2057.73,563.553 2057.73,495.618 2057.73,427.682 2057.73,359.747 2057.73,291.812 
  2057.73,223.876 2057.73,155.941 2057.73,88.0053 1966.03,88.0053 1874.32,88.0053 1782.62,88.0053 1690.92,88.0053 
  1701.5,88.0053 1690.92,93.3687 1599.21,132.7 1532.98,155.941 1507.51,165.931 1415.8,193.905 1324.1,213.886 1247.68,223.876 1232.4,226.141 1140.69,230.67 
  1048.99,226.141 1033.7,223.876 957.283,213.886 865.579,193.905 773.875,165.931 748.401,155.941 682.17,132.7 590.466,93.3687 579.885,88.0053 498.762,88.0053 
  407.058,88.0053 315.354,88.0053 223.649,88.0053 223.649,155.941 223.649,223.876 223.649,291.812 
  223.649,359.747 223.649,427.682 223.649,495.618 223.649,563.553 223.649,631.489 223.649,699.424 223.649,767.359 223.649,835.295 223.649,903.23 223.649,971.166 
  223.649,1039.1 223.649,1107.04 223.649,1174.97 223.649,1242.91 223.649,1310.84 223.649,1378.78 223.649,1446.71 
  "/>
<polyline clip-path="url(#clip5802)" style="stroke:#000000; stroke-width:4; stroke-opacity:1; fill:none" points="
  223.649,1446.71 223.649,1446.71 315.354,1446.71 407.058,1446.71 492.648,1446.71 498.762,1443.14 590.466,1396.66 632.15,1378.78 682.17,1354.8 
  773.875,1318.84 800.076,1310.84 865.579,1288.2 957.283,1265.55 1048.99,1251.97 1140.69,1247.44 1232.4,1251.97 1324.1,1265.55 1415.8,1288.2 1481.31,1310.84 
  1507.51,1318.84 1599.21,1354.8 1649.23,1378.78 1690.92,1396.66 1782.62,1443.14 1788.73,1446.71 1782.62,1446.71 1874.32,1446.71 1966.03,1446.71 2057.73,1446.71 
  2057.73,1378.78 2057.73,1310.84 2057.73,1242.91 2057.73,1174.97 2057.73,1107.04 2057.73,1039.1 2057.73,971.166 
  2057.73,903.23 2057.73,835.295 2057.73,767.359 2057.73,699.424 2057.73,631.489 2057.73,563.553 2057.73,495.618 2057.73,427.682 2057.73,359.747 2057.73,291.812 
  2057.73,223.876 2057.73,155.941 2057.73,88.0053 1966.03,88.0053 1874.32,88.0053 1782.62,88.0053 1788.73,88.0053 
  1782.62,91.5809 1690.92,138.063 1649.23,155.941 1599.21,179.918 1507.51,215.884 1481.31,223.876 1415.8,246.521 1324.1,269.166 1232.4,282.754 1140.69,287.283 
  1048.99,282.754 957.283,269.166 865.579,246.521 800.076,223.876 773.875,215.884 682.17,179.918 632.15,155.941 590.466,138.063 498.762,91.5809 492.648,88.0053 
  407.058,88.0053 315.354,88.0053 223.649,88.0053 223.649,155.941 223.649,223.876 223.649,291.812 
  223.649,359.747 223.649,427.682 223.649,495.618 223.649,563.553 223.649,631.489 223.649,699.424 223.649,767.359 223.649,835.295 223.649,903.23 223.649,971.166 
  223.649,1039.1 223.649,1107.04 223.649,1174.97 223.649,1242.91 223.649,1310.84 223.649,1378.78 223.649,1446.71 
  "/>
<polyline clip-path="url(#clip5802)" style="stroke:#000000; stroke-width:4; stroke-opacity:1; fill:none" points="
  223.649,1446.71 223.649,1446.71 315.354,1446.71 407.058,1446.71 416.228,1446.71 498.762,1398.44 537.56,1378.78 590.466,1348.81 669.665,1310.84 
  682.17,1304.05 773.875,1263.29 832.827,1242.91 865.579,1229.84 957.283,1203.71 1048.99,1188.04 1140.69,1182.81 1232.4,1188.04 1324.1,1203.71 1415.8,1229.84 
  1448.56,1242.91 1507.51,1263.29 1599.21,1304.05 1611.72,1310.84 1690.92,1348.81 1743.82,1378.78 1782.62,1398.44 1865.15,1446.71 1782.62,1446.71 1874.32,1446.71 
  1966.03,1446.71 2057.73,1446.71 2057.73,1378.78 2057.73,1310.84 2057.73,1242.91 2057.73,1174.97 2057.73,1107.04 
  2057.73,1039.1 2057.73,971.166 2057.73,903.23 2057.73,835.295 2057.73,767.359 2057.73,699.424 2057.73,631.489 2057.73,563.553 2057.73,495.618 2057.73,427.682 
  2057.73,359.747 2057.73,291.812 2057.73,223.876 2057.73,155.941 2057.73,88.0053 1966.03,88.0053 1874.32,88.0053 
  1782.62,88.0053 1865.15,88.0053 1782.62,136.275 1743.82,155.941 1690.92,185.912 1611.72,223.876 1599.21,230.67 1507.51,271.431 1448.56,291.812 1415.8,304.876 
  1324.1,331.005 1232.4,346.682 1140.69,351.908 1048.99,346.682 957.283,331.005 865.579,304.876 832.827,291.812 773.875,271.431 682.17,230.67 669.665,223.876 
  590.466,185.912 537.56,155.941 498.762,136.275 416.228,88.0053 407.058,88.0053 315.354,88.0053 223.649,88.0053 
  223.649,155.941 223.649,223.876 223.649,291.812 223.649,359.747 223.649,427.682 223.649,495.618 223.649,563.553 223.649,631.489 223.649,699.424 
  223.649,767.359 223.649,835.295 223.649,903.23 223.649,971.166 223.649,1039.1 223.649,1107.04 223.649,1174.97 223.649,1242.91 223.649,1310.84 223.649,1378.78 
  223.649,1446.71 
  "/>
<polyline clip-path="url(#clip5802)" style="stroke:#000000; stroke-width:4; stroke-opacity:1; fill:none" points="
  223.649,1446.71 223.649,1446.71 315.354,1446.71 347.72,1446.71 407.058,1407.38 455.967,1378.78 498.762,1350.8 569.304,1310.84 590.466,1297.26 
  682.17,1247.44 692.36,1242.91 773.875,1201.1 839.378,1174.97 865.579,1162.62 957.283,1131.74 1048.99,1113.21 1140.69,1107.04 1232.4,1113.21 1324.1,1131.74 
  1415.8,1162.62 1442.01,1174.97 1507.51,1201.1 1589.02,1242.91 1599.21,1247.44 1690.92,1297.26 1712.08,1310.84 1782.62,1350.8 1825.42,1378.78 1874.32,1407.38 
  1933.66,1446.71 1874.32,1446.71 1966.03,1446.71 2057.73,1446.71 2057.73,1378.78 2057.73,1310.84 2057.73,1242.91 
  2057.73,1174.97 2057.73,1107.04 2057.73,1039.1 2057.73,971.166 2057.73,903.23 2057.73,835.295 2057.73,767.359 2057.73,699.424 2057.73,631.489 2057.73,563.553 
  2057.73,495.618 2057.73,427.682 2057.73,359.747 2057.73,291.812 2057.73,223.876 2057.73,155.941 2057.73,88.0053 
  1966.03,88.0053 1874.32,88.0053 1933.66,88.0053 1874.32,127.336 1825.42,155.941 1782.62,183.914 1712.08,223.876 1690.92,237.463 1599.21,287.283 1589.02,291.812 
  1507.51,333.618 1442.01,359.747 1415.8,372.099 1324.1,402.979 1232.4,421.506 1140.69,427.682 1048.99,421.506 957.283,402.979 865.579,372.099 839.378,359.747 
  773.875,333.618 692.36,291.812 682.17,287.283 590.466,237.463 569.304,223.876 498.762,183.914 455.967,155.941 407.058,127.336 347.72,88.0053 315.354,88.0053 
  223.649,88.0053 223.649,155.941 223.649,223.876 223.649,291.812 223.649,359.747 223.649,427.682 
  223.649,495.618 223.649,563.553 223.649,631.489 223.649,699.424 223.649,767.359 223.649,835.295 223.649,903.23 223.649,971.166 223.649,1039.1 223.649,1107.04 
  223.649,1174.97 223.649,1242.91 223.649,1310.84 223.649,1378.78 223.649,1446.71 
  "/>
<polyline clip-path="url(#clip5802)" style="stroke:#000000; stroke-width:4; stroke-opacity:1; fill:none" points="
  223.649,1446.71 223.649,1446.71 283.981,1446.71 315.354,1423.47 382.783,1378.78 407.058,1360.8 483.478,1310.84 498.762,1299.52 586.939,1242.91 
  590.466,1240.29 682.17,1182.81 697.454,1174.97 773.875,1128.65 819.727,1107.04 865.579,1080.62 957.283,1042.88 972.567,1039.1 1048.99,1014.84 1140.69,1005.13 
  1232.4,1014.84 1308.82,1039.1 1324.1,1042.88 1415.8,1080.62 1461.66,1107.04 1507.51,1128.65 1583.93,1174.97 1599.21,1182.81 1690.92,1240.29 1694.44,1242.91 
  1782.62,1299.52 1797.9,1310.84 1874.32,1360.8 1898.6,1378.78 1966.03,1423.47 1997.4,1446.71 1966.03,1446.71 2057.73,1446.71 
  2057.73,1378.78 2057.73,1310.84 2057.73,1242.91 2057.73,1174.97 2057.73,1107.04 2057.73,1039.1 2057.73,971.166 2057.73,903.23 2057.73,835.295 
  2057.73,767.359 2057.73,699.424 2057.73,631.489 2057.73,563.553 2057.73,495.618 2057.73,427.682 2057.73,359.747 2057.73,291.812 2057.73,223.876 2057.73,155.941 
  2057.73,88.0053 1966.03,88.0053 1997.4,88.0053 1966.03,111.246 1898.6,155.941 1874.32,173.924 1797.9,223.876 
  1782.62,235.199 1694.44,291.812 1690.92,294.424 1599.21,351.908 1583.93,359.747 1507.51,406.067 1461.66,427.682 1415.8,454.102 1324.1,491.844 1308.82,495.618 
  1232.4,519.88 1140.69,529.585 1048.99,519.88 972.567,495.618 957.283,491.844 865.579,454.102 819.727,427.682 773.875,406.067 697.454,359.747 682.17,351.908 
  590.466,294.424 586.939,291.812 498.762,235.199 483.478,223.876 407.058,173.924 382.783,155.941 315.354,111.246 283.981,88.0053 223.649,88.0053 
  223.649,155.941 223.649,223.876 223.649,291.812 223.649,359.747 223.649,427.682 223.649,495.618 223.649,563.553 
  223.649,631.489 223.649,699.424 223.649,767.359 223.649,835.295 223.649,903.23 223.649,971.166 223.649,1039.1 223.649,1107.04 223.649,1174.97 223.649,1242.91 
  223.649,1310.84 223.649,1378.78 223.649,1446.71 
  "/>
<polyline clip-path="url(#clip5802)" style="stroke:#000000; stroke-width:4; stroke-opacity:1; fill:none" points="
  223.649,1446.71 223.649,1446.71 315.354,1378.78 407.058,1310.84 498.762,1242.91 
  590.466,1174.97 682.17,1107.04 773.875,1039.1 865.579,971.166 957.283,903.23 
  1048.99,835.295 1140.69,767.359 1232.4,835.295 1324.1,903.23 1415.8,971.166 1507.51,1039.1 
  1599.21,1107.04 1690.92,1174.97 1782.62,1242.91 1874.32,1310.84 1966.03,1378.78 
  2057.73,1446.71 1966.03,1446.71 2057.73,1446.71 2057.73,1378.78 2057.73,1310.84 2057.73,1242.91 
  2057.73,1174.97 2057.73,1107.04 2057.73,1039.1 2057.73,971.166 2057.73,903.23 2057.73,835.295 2057.73,767.359 2057.73,699.424 2057.73,631.489 2057.73,563.553 
  2057.73,495.618 2057.73,427.682 2057.73,359.747 2057.73,291.812 2057.73,223.876 2057.73,155.941 2057.73,88.0053 
  1966.03,88.0053 2057.73,88.0053 1966.03,155.941 1874.32,223.876 1782.62,291.812 1690.92,359.747 
  1599.21,427.682 1507.51,495.618 1415.8,563.553 1324.1,631.489 1232.4,699.424 
  1140.69,767.359 1048.99,699.424 957.283,631.489 865.579,563.553 773.875,495.618 682.17,427.682 
  590.466,359.747 498.762,291.812 407.058,223.876 315.354,155.941 223.649,88.0053 
  223.649,155.941 223.649,223.876 223.649,291.812 223.649,359.747 223.649,427.682 
  223.649,495.618 223.649,563.553 223.649,631.489 223.649,699.424 223.649,767.359 223.649,835.295 223.649,903.23 223.649,971.166 223.649,1039.1 223.649,1107.04 
  223.649,1174.97 223.649,1242.91 223.649,1310.84 223.649,1378.78 223.649,1446.71 
  "/>
<polyline clip-path="url(#clip5802)" style="stroke:#000000; stroke-width:4; stroke-opacity:1; fill:none" points="
  223.649,1446.71 223.649,1402.02 255.022,1378.78 315.354,1328.83 339.628,1310.84 407.058,1254.23 422.342,1242.91 498.762,1177.58 502.289,1174.97 579.885,1107.04 
  590.466,1095.71 652.992,1039.1 682.17,1005.13 717.833,971.166 768.78,903.23 773.875,891.908 806.626,835.295 819.727,767.359 806.626,699.424 773.875,642.811 
  768.78,631.489 717.833,563.553 682.17,529.585 652.992,495.618 590.466,439.005 579.885,427.682 502.289,359.747 498.762,357.134 422.342,291.812 407.058,280.489 
  339.628,223.876 315.354,205.893 255.022,155.941 223.649,132.7 223.649,155.941 223.649,223.876 223.649,291.812 223.649,359.747 223.649,427.682 
  223.649,495.618 223.649,563.553 223.649,631.489 223.649,699.424 223.649,767.359 223.649,835.295 223.649,903.23 223.649,971.166 223.649,1039.1 223.649,1107.04 
  223.649,1174.97 223.649,1242.91 223.649,1310.84 223.649,1378.78 223.649,1446.71 
  "/>
<polyline clip-path="url(#clip5802)" style="stroke:#000000; stroke-width:4; stroke-opacity:1; fill:none" points="
  2057.73,1402.02 2057.73,1446.71 2057.73,1378.78 2057.73,1310.84 2057.73,1242.91 2057.73,1174.97 2057.73,1107.04 2057.73,1039.1 2057.73,971.166 2057.73,903.23 
  2057.73,835.295 2057.73,767.359 2057.73,699.424 2057.73,631.489 2057.73,563.553 2057.73,495.618 2057.73,427.682 2057.73,359.747 2057.73,291.812 2057.73,223.876 
  2057.73,155.941 2057.73,132.7 2026.36,155.941 1966.03,205.893 1941.75,223.876 1874.32,280.489 1859.04,291.812 1782.62,357.134 1779.09,359.747 
  1701.5,427.682 1690.92,439.005 1628.39,495.618 1599.21,529.585 1563.55,563.553 1512.6,631.489 1507.51,642.811 1474.76,699.424 1461.66,767.359 1474.76,835.295 
  1507.51,891.908 1512.6,903.23 1563.55,971.166 1599.21,1005.13 1628.39,1039.1 1690.92,1095.71 1701.5,1107.04 1779.09,1174.97 1782.62,1177.58 1859.04,1242.91 
  1874.32,1254.23 1941.75,1310.84 1966.03,1328.83 2026.36,1378.78 2057.73,1402.02 
  "/>
<polyline clip-path="url(#clip5802)" style="stroke:#000000; stroke-width:4; stroke-opacity:1; fill:none" points="
  223.649,1378.78 223.649,1354.8 276.741,1310.84 315.354,1274.61 353.114,1242.91 407.058,1190.65 425.399,1174.97 492.648,1107.04 498.762,1099.49 555.195,1039.1 
  590.466,990.576 607.14,971.166 648.823,903.23 673.834,835.295 682.17,767.359 673.834,699.424 648.823,631.489 607.14,563.553 
  590.466,544.143 555.195,495.618 498.762,435.231 492.648,427.682 425.399,359.747 407.058,344.07 353.114,291.812 315.354,260.108 276.741,223.876 223.649,179.918 
  223.649,223.876 223.649,291.812 223.649,359.747 223.649,427.682 223.649,495.618 223.649,563.553 223.649,631.489 223.649,699.424 223.649,767.359 
  223.649,835.295 223.649,903.23 223.649,971.166 223.649,1039.1 223.649,1107.04 223.649,1174.97 223.649,1242.91 223.649,1310.84 223.649,1378.78 
  "/>
<polyline clip-path="url(#clip5802)" style="stroke:#000000; stroke-width:4; stroke-opacity:1; fill:none" points="
  2057.73,1354.8 2057.73,1378.78 2057.73,1310.84 2057.73,1242.91 2057.73,1174.97 2057.73,1107.04 2057.73,1039.1 2057.73,971.166 2057.73,903.23 2057.73,835.295 
  2057.73,767.359 2057.73,699.424 2057.73,631.489 2057.73,563.553 2057.73,495.618 2057.73,427.682 2057.73,359.747 2057.73,291.812 2057.73,223.876 
  2057.73,179.918 2004.64,223.876 1966.03,260.108 1928.27,291.812 1874.32,344.07 1855.98,359.747 1788.73,427.682 1782.62,435.231 1726.19,495.618 1690.92,544.143 
  1674.24,563.553 1632.56,631.489 1607.55,699.424 1599.21,767.359 1607.55,835.295 1632.56,903.23 1674.24,971.166 1690.92,990.576 
  1726.19,1039.1 1782.62,1099.49 1788.73,1107.04 1855.98,1174.97 1874.32,1190.65 1928.27,1242.91 1966.03,1274.61 2004.64,1310.84 2057.73,1354.8 
  "/>
<polyline clip-path="url(#clip5802)" style="stroke:#000000; stroke-width:4; stroke-opacity:1; fill:none" points="
  223.649,1310.84 223.649,1304.05 288.808,1242.91 315.354,1214.17 355.811,1174.97 407.058,1116.3 416.228,1107.04 471.251,1039.1 498.762,995.428 516.397,971.166 
  551.668,903.23 572.831,835.295 579.885,767.359 572.831,699.424 551.668,631.489 516.397,563.553 498.762,539.291 471.251,495.618 416.228,427.682 407.058,418.418 
  355.811,359.747 315.354,320.553 288.808,291.812 223.649,230.67 223.649,291.812 223.649,359.747 223.649,427.682 223.649,495.618 223.649,563.553 
  223.649,631.489 223.649,699.424 223.649,767.359 223.649,835.295 223.649,903.23 223.649,971.166 223.649,1039.1 223.649,1107.04 223.649,1174.97 223.649,1242.91 
  223.649,1310.84 
  "/>
<polyline clip-path="url(#clip5802)" style="stroke:#000000; stroke-width:4; stroke-opacity:1; fill:none" points="
  2057.73,1304.05 2057.73,1310.84 2057.73,1242.91 2057.73,1174.97 2057.73,1107.04 2057.73,1039.1 2057.73,971.166 2057.73,903.23 2057.73,835.295 2057.73,767.359 
  2057.73,699.424 2057.73,631.489 2057.73,563.553 2057.73,495.618 2057.73,427.682 2057.73,359.747 2057.73,291.812 2057.73,230.67 1992.58,291.812 
  1966.03,320.553 1925.57,359.747 1874.32,418.418 1865.15,427.682 1810.13,495.618 1782.62,539.291 1764.99,563.553 1729.71,631.489 1708.55,699.424 1701.5,767.359 
  1708.55,835.295 1729.71,903.23 1764.99,971.166 1782.62,995.428 1810.13,1039.1 1865.15,1107.04 1874.32,1116.3 1925.57,1174.97 1966.03,1214.17 1992.58,1242.91 
  2057.73,1304.05 
  "/>
<polyline clip-path="url(#clip5802)" style="stroke:#000000; stroke-width:4; stroke-opacity:1; fill:none" points="
  223.649,1310.84 223.649,1247.44 228.476,1242.91 291.221,1174.97 315.354,1144.09 347.72,1107.04 396.269,1039.1 407.058,1019.69 437.626,971.166 468.194,903.23 
  486.535,835.295 492.648,767.359 486.535,699.424 468.194,631.489 437.626,563.553 407.058,515.028 396.269,495.618 347.72,427.682 315.354,390.627 291.221,359.747 
  228.476,291.812 223.649,287.283 223.649,291.812 223.649,359.747 223.649,427.682 223.649,495.618 223.649,563.553 223.649,631.489 223.649,699.424 
  223.649,767.359 223.649,835.295 223.649,903.23 223.649,971.166 223.649,1039.1 223.649,1107.04 223.649,1174.97 223.649,1242.91 223.649,1310.84 
  "/>
<polyline clip-path="url(#clip5802)" style="stroke:#000000; stroke-width:4; stroke-opacity:1; fill:none" points="
  2057.73,1247.44 2057.73,1310.84 2057.73,1242.91 2057.73,1174.97 2057.73,1107.04 2057.73,1039.1 2057.73,971.166 2057.73,903.23 2057.73,835.295 2057.73,767.359 
  2057.73,699.424 2057.73,631.489 2057.73,563.553 2057.73,495.618 2057.73,427.682 2057.73,359.747 2057.73,291.812 2057.73,287.283 2052.91,291.812 
  1990.16,359.747 1966.03,390.627 1933.66,427.682 1885.11,495.618 1874.32,515.028 1843.76,563.553 1813.19,631.489 1794.85,699.424 1788.73,767.359 1794.85,835.295 
  1813.19,903.23 1843.76,971.166 1874.32,1019.69 1885.11,1039.1 1933.66,1107.04 1966.03,1144.09 1990.16,1174.97 2052.91,1242.91 2057.73,1247.44 
  "/>
<polyline clip-path="url(#clip5802)" style="stroke:#000000; stroke-width:4; stroke-opacity:1; fill:none" points="
  223.649,1242.91 223.649,1182.81 230.889,1174.97 283.981,1107.04 315.354,1057.97 328.84,1039.1 366.6,971.166 393.572,903.23 407.058,846.617 410.115,835.295 
  416.228,767.359 410.115,699.424 407.058,688.101 393.572,631.489 366.6,563.553 328.84,495.618 315.354,476.747 283.981,427.682 230.889,359.747 223.649,351.908 
  223.649,359.747 223.649,427.682 223.649,495.618 223.649,563.553 223.649,631.489 223.649,699.424 223.649,767.359 223.649,835.295 223.649,903.23 
  223.649,971.166 223.649,1039.1 223.649,1107.04 223.649,1174.97 223.649,1242.91 
  "/>
<polyline clip-path="url(#clip5802)" style="stroke:#000000; stroke-width:4; stroke-opacity:1; fill:none" points="
  2057.73,1182.81 2057.73,1242.91 2057.73,1174.97 2057.73,1107.04 2057.73,1039.1 2057.73,971.166 2057.73,903.23 2057.73,835.295 2057.73,767.359 2057.73,699.424 
  2057.73,631.489 2057.73,563.553 2057.73,495.618 2057.73,427.682 2057.73,359.747 2057.73,351.908 2050.49,359.747 1997.4,427.682 1966.03,476.747 
  1952.54,495.618 1914.78,563.553 1887.81,631.489 1874.32,688.101 1871.27,699.424 1865.15,767.359 1871.27,835.295 1874.32,846.617 1887.81,903.23 1914.78,971.166 
  1952.54,1039.1 1966.03,1057.97 1997.4,1107.04 2050.49,1174.97 2057.73,1182.81 
  "/>
<polyline clip-path="url(#clip5802)" style="stroke:#000000; stroke-width:4; stroke-opacity:1; fill:none" points="
  223.649,1174.97 223.649,1107.04 267.088,1039.1 300.874,971.166 315.354,930.404 326.142,903.23 342.325,835.295 347.72,767.359 342.325,699.424 
  326.142,631.489 315.354,604.314 300.874,563.553 267.088,495.618 223.649,427.682 223.649,495.618 223.649,563.553 
  223.649,631.489 223.649,699.424 223.649,767.359 223.649,835.295 223.649,903.23 223.649,971.166 223.649,1039.1 223.649,1107.04 223.649,1174.97 
  "/>
<polyline clip-path="url(#clip5802)" style="stroke:#000000; stroke-width:4; stroke-opacity:1; fill:none" points="
  2057.73,1107.04 2057.73,1174.97 2057.73,1107.04 2057.73,1039.1 2057.73,971.166 2057.73,903.23 2057.73,835.295 2057.73,767.359 2057.73,699.424 2057.73,631.489 
  2057.73,563.553 2057.73,495.618 2057.73,427.682 2014.29,495.618 1980.51,563.553 1966.03,604.314 1955.24,631.489 
  1939.06,699.424 1933.66,767.359 1939.06,835.295 1955.24,903.23 1966.03,930.404 1980.51,971.166 2014.29,1039.1 2057.73,1107.04 
  "/>
<polyline clip-path="url(#clip5802)" style="stroke:#000000; stroke-width:4; stroke-opacity:1; fill:none" points="
  223.649,1039.1 223.649,1005.13 240.542,971.166 264.675,903.23 279.155,835.295 283.981,767.359 279.155,699.424 264.675,631.489 240.542,563.553 223.649,529.585 
  223.649,563.553 223.649,631.489 223.649,699.424 223.649,767.359 223.649,835.295 223.649,903.23 223.649,971.166 223.649,1039.1 
  "/>
<polyline clip-path="url(#clip5802)" style="stroke:#000000; stroke-width:4; stroke-opacity:1; fill:none" points="
  2057.73,1005.13 2057.73,1039.1 2057.73,971.166 2057.73,903.23 2057.73,835.295 2057.73,767.359 2057.73,699.424 2057.73,631.489 2057.73,563.553 
  2057.73,529.585 2040.84,563.553 2016.71,631.489 2002.23,699.424 1997.4,767.359 2002.23,835.295 2016.71,903.23 2040.84,971.166 2057.73,1005.13 
  "/>
<circle clip-path="url(#clip5802)" cx="407.058" cy="1039.1" r="14" fill="#ff0000" fill-rule="evenodd" fill-opacity="1" stroke="#000000" stroke-opacity="1" stroke-width="3.2"/>
<polyline clip-path="url(#clip5802)" style="stroke:#ff00ff; stroke-width:8; stroke-opacity:1; fill:none" points="
  407.058,1039.1 553.785,1093.45 
  "/>
<polyline clip-path="url(#clip5802)" style="stroke:#ff00ff; stroke-width:8; stroke-opacity:1; fill:none" points="
  526.278,1064.07 553.785,1093.45 513.774,1097.82 
  "/>
<polyline clip-path="url(#clip5802)" style="stroke:#ff00ff; stroke-width:8; stroke-opacity:1; fill:none" points="
  553.785,1093.45 407.058,1039.1 
  "/>
<polyline clip-path="url(#clip5802)" style="stroke:#00ee00; stroke-width:8; stroke-opacity:1; fill:none" points="
  407.058,1039.1 407.058,1174.97 
  "/>
<polyline clip-path="url(#clip5802)" style="stroke:#00ee00; stroke-width:8; stroke-opacity:1; fill:none" points="
  425.058,1138.97 407.058,1174.97 389.058,1138.97 
  "/>
<polyline clip-path="url(#clip5802)" style="stroke:#00ee00; stroke-width:8; stroke-opacity:1; fill:none" points="
  407.058,1174.97 407.058,1039.1 
  "/>
<polyline clip-path="url(#clip5802)" style="stroke:#00ee00; stroke-width:8; stroke-opacity:1; fill:none" points="
  407.058,1039.1 590.466,1039.1 
  "/>
<polyline clip-path="url(#clip5802)" style="stroke:#00ee00; stroke-width:8; stroke-opacity:1; fill:none" points="
  554.466,1021.1 590.466,1039.1 554.466,1057.1 
  "/>
<polyline clip-path="url(#clip5802)" style="stroke:#00ee00; stroke-width:8; stroke-opacity:1; fill:none" points="
  590.466,1039.1 407.058,1039.1 
  "/>
<polyline clip-path="url(#clip5802)" style="stroke:#000000; stroke-width:8; stroke-opacity:1; fill:none" points="
  407.058,1039.1 1140.69,767.359 
  "/>
<polyline clip-path="url(#clip5802)" style="stroke:#000000; stroke-width:8; stroke-opacity:1; fill:none" points="
  1100.68,762.984 1140.69,767.359 1113.18,796.743 
  "/>
<polyline clip-path="url(#clip5802)" style="stroke:#000000; stroke-width:8; stroke-opacity:1; fill:none" points="
  1140.69,767.359 407.058,1039.1 
  "/>
<defs>
  <clipPath id="clip5803">
    <rect x="2160" y="47" width="73" height="1441"/>
  </clipPath>
</defs>
<path clip-path="url(#clip5803)" d="
M2160.76 1487.47 L2232.76 1487.47 L2232.76 1397.46 L2160.76 1397.46  Z
  " fill="#add8e6" fill-rule="evenodd" fill-opacity="1"/>
<path clip-path="url(#clip5803)" d="
M2160.76 1397.46 L2232.76 1397.46 L2232.76 1307.45 L2160.76 1307.45  Z
  " fill="#a1c9df" fill-rule="evenodd" fill-opacity="1"/>
<path clip-path="url(#clip5803)" d="
M2160.76 1307.45 L2232.76 1307.45 L2232.76 1217.43 L2160.76 1217.43  Z
  " fill="#95bbd9" fill-rule="evenodd" fill-opacity="1"/>
<path clip-path="url(#clip5803)" d="
M2160.76 1217.43 L2232.76 1217.43 L2232.76 1127.42 L2160.76 1127.42  Z
  " fill="#8aacd3" fill-rule="evenodd" fill-opacity="1"/>
<path clip-path="url(#clip5803)" d="
M2160.76 1127.42 L2232.76 1127.42 L2232.76 1037.4 L2160.76 1037.4  Z
  " fill="#7e9ecd" fill-rule="evenodd" fill-opacity="1"/>
<path clip-path="url(#clip5803)" d="
M2160.76 1037.4 L2232.76 1037.4 L2232.76 947.388 L2160.76 947.388  Z
  " fill="#7390c7" fill-rule="evenodd" fill-opacity="1"/>
<path clip-path="url(#clip5803)" d="
M2160.76 947.388 L2232.76 947.388 L2232.76 857.374 L2160.76 857.374  Z
  " fill="#6781c1" fill-rule="evenodd" fill-opacity="1"/>
<path clip-path="url(#clip5803)" d="
M2160.76 857.374 L2232.76 857.374 L2232.76 767.359 L2160.76 767.359  Z
  " fill="#5c73bb" fill-rule="evenodd" fill-opacity="1"/>
<path clip-path="url(#clip5803)" d="
M2160.76 767.359 L2232.76 767.359 L2232.76 677.345 L2160.76 677.345  Z
  " fill="#5064b5" fill-rule="evenodd" fill-opacity="1"/>
<path clip-path="url(#clip5803)" d="
M2160.76 677.345 L2232.76 677.345 L2232.76 587.331 L2160.76 587.331  Z
  " fill="#4556af" fill-rule="evenodd" fill-opacity="1"/>
<path clip-path="url(#clip5803)" d="
M2160.76 587.331 L2232.76 587.331 L2232.76 497.316 L2160.76 497.316  Z
  " fill="#3948a9" fill-rule="evenodd" fill-opacity="1"/>
<path clip-path="url(#clip5803)" d="
M2160.76 497.316 L2232.76 497.316 L2232.76 407.302 L2160.76 407.302  Z
  " fill="#2e39a3" fill-rule="evenodd" fill-opacity="1"/>
<path clip-path="url(#clip5803)" d="
M2160.76 407.302 L2232.76 407.302 L2232.76 317.287 L2160.76 317.287  Z
  " fill="#222b9d" fill-rule="evenodd" fill-opacity="1"/>
<path clip-path="url(#clip5803)" d="
M2160.76 317.287 L2232.76 317.287 L2232.76 227.273 L2160.76 227.273  Z
  " fill="#171c97" fill-rule="evenodd" fill-opacity="1"/>
<path clip-path="url(#clip5803)" d="
M2160.76 227.273 L2232.76 227.273 L2232.76 137.259 L2160.76 137.259  Z
  " fill="#0b0e91" fill-rule="evenodd" fill-opacity="1"/>
<path clip-path="url(#clip5803)" d="
M2160.76 137.259 L2232.76 137.259 L2232.76 47.2441 L2160.76 47.2441  Z
  " fill="#00008b" fill-rule="evenodd" fill-opacity="1"/>
<g clip-path="url(#clip5800)">
<text style="fill:#000000; fill-opacity:1; font-family:Arial,Helvetica Neue,Helvetica,sans-serif; font-size:48px; text-anchor:start;" transform="rotate(0, 2268.76, 1501.13)" x="2268.76" y="1501.13">-</text>
</g>
<g clip-path="url(#clip5800)">
<text style="fill:#000000; fill-opacity:1; font-family:Arial,Helvetica Neue,Helvetica,sans-serif; font-size:48px; text-anchor:start;" transform="rotate(0, 2296.87, 1501.13)" x="2296.87" y="1501.13">100</text>
</g>
<g clip-path="url(#clip5800)">
<text style="fill:#000000; fill-opacity:1; font-family:Arial,Helvetica Neue,Helvetica,sans-serif; font-size:48px; text-anchor:start;" transform="rotate(0, 2268.76, 1321.1)" x="2268.76" y="1321.1">-</text>
</g>
<g clip-path="url(#clip5800)">
<text style="fill:#000000; fill-opacity:1; font-family:Arial,Helvetica Neue,Helvetica,sans-serif; font-size:48px; text-anchor:start;" transform="rotate(0, 2296.87, 1321.1)" x="2296.87" y="1321.1">75</text>
</g>
<g clip-path="url(#clip5800)">
<text style="fill:#000000; fill-opacity:1; font-family:Arial,Helvetica Neue,Helvetica,sans-serif; font-size:48px; text-anchor:start;" transform="rotate(0, 2268.76, 1141.07)" x="2268.76" y="1141.07">-</text>
</g>
<g clip-path="url(#clip5800)">
<text style="fill:#000000; fill-opacity:1; font-family:Arial,Helvetica Neue,Helvetica,sans-serif; font-size:48px; text-anchor:start;" transform="rotate(0, 2296.87, 1141.07)" x="2296.87" y="1141.07">50</text>
</g>
<g clip-path="url(#clip5800)">
<text style="fill:#000000; fill-opacity:1; font-family:Arial,Helvetica Neue,Helvetica,sans-serif; font-size:48px; text-anchor:start;" transform="rotate(0, 2268.76, 961.039)" x="2268.76" y="961.039">-</text>
</g>
<g clip-path="url(#clip5800)">
<text style="fill:#000000; fill-opacity:1; font-family:Arial,Helvetica Neue,Helvetica,sans-serif; font-size:48px; text-anchor:start;" transform="rotate(0, 2296.87, 961.039)" x="2296.87" y="961.039">25</text>
</g>
<g clip-path="url(#clip5800)">
<text style="fill:#000000; fill-opacity:1; font-family:Arial,Helvetica Neue,Helvetica,sans-serif; font-size:48px; text-anchor:start;" transform="rotate(0, 2268.76, 781.011)" x="2268.76" y="781.011">0</text>
</g>
<g clip-path="url(#clip5800)">
<text style="fill:#000000; fill-opacity:1; font-family:Arial,Helvetica Neue,Helvetica,sans-serif; font-size:48px; text-anchor:start;" transform="rotate(0, 2268.76, 600.982)" x="2268.76" y="600.982">25</text>
</g>
<g clip-path="url(#clip5800)">
<text style="fill:#000000; fill-opacity:1; font-family:Arial,Helvetica Neue,Helvetica,sans-serif; font-size:48px; text-anchor:start;" transform="rotate(0, 2268.76, 420.953)" x="2268.76" y="420.953">50</text>
</g>
<g clip-path="url(#clip5800)">
<text style="fill:#000000; fill-opacity:1; font-family:Arial,Helvetica Neue,Helvetica,sans-serif; font-size:48px; text-anchor:start;" transform="rotate(0, 2268.76, 240.924)" x="2268.76" y="240.924">75</text>
</g>
<g clip-path="url(#clip5800)">
<text style="fill:#000000; fill-opacity:1; font-family:Arial,Helvetica Neue,Helvetica,sans-serif; font-size:48px; text-anchor:start;" transform="rotate(0, 2268.76, 60.8953)" x="2268.76" y="60.8953">100</text>
</g>
<polyline clip-path="url(#clip5800)" style="stroke:#000000; stroke-width:4; stroke-opacity:1; fill:none" points="
  2232.76,1487.47 2232.76,1487.47 2256.76,1487.47 2232.76,1487.47 2232.76,1307.45 2256.76,1307.45 2232.76,1307.45 2232.76,1127.42 2256.76,1127.42 2232.76,1127.42 
  2232.76,947.388 2256.76,947.388 2232.76,947.388 2232.76,767.359 2256.76,767.359 2232.76,767.359 2232.76,587.331 2256.76,587.331 2232.76,587.331 2232.76,407.302 
  2256.76,407.302 2232.76,407.302 2232.76,227.273 2256.76,227.273 2232.76,227.273 2232.76,47.2441 2256.76,47.2441 2232.76,47.2441 
  "/>
</svg>
