<?xml version="1.0" encoding="utf-8"?>
<svg xmlns="http://www.w3.org/2000/svg" xmlns:xlink="http://www.w3.org/1999/xlink" width="600" height="400" viewBox="0 0 2400 1600">
<defs>
  <clipPath id="clip6200">
    <rect x="0" y="0" width="2400" height="1600"/>
  </clipPath>
</defs>
<path clip-path="url(#clip6200)" d="
M0 1600 L2400 1600 L2400 0 L0 0  Z
  " fill="#ffffff" fill-rule="evenodd" fill-opacity="1"/>
<defs>
  <clipPath id="clip6201">
    <rect x="480" y="0" width="1681" height="1600"/>
  </clipPath>
</defs>
<path clip-path="url(#clip6200)" d="
M229.135 1425.62 L2352.76 1425.62 L2352.76 121.675 L229.135 121.675  Z
  " fill="#ffffff" fill-rule="evenodd" fill-opacity="1"/>
<defs>
  <clipPath id="clip6202">
    <rect x="229" y="121" width="2125" height="1305"/>
  </clipPath>
</defs>
<polyline clip-path="url(#clip6202)" style="stroke:#000000; stroke-width:2; stroke-opacity:0.1; fill:none" points="
  269.204,1425.62 269.204,121.675 
  "/>
<polyline clip-path="url(#clip6202)" style="stroke:#000000; stroke-width:2; stroke-opacity:0.1; fill:none" points="
  770.057,1425.62 770.057,121.675 
  "/>
<polyline clip-path="url(#clip6202)" style="stroke:#000000; stroke-width:2; stroke-opacity:0.1; fill:none" points="
  1270.91,1425.62 1270.91,121.675 
  "/>
<polyline clip-path="url(#clip6202)" style="stroke:#000000; stroke-width:2; stroke-opacity:0.1; fill:none" points="
  1771.77,1425.62 1771.77,121.675 
  "/>
<polyline clip-path="url(#clip6202)" style="stroke:#000000; stroke-width:2; stroke-opacity:0.1; fill:none" points="
  2272.62,1425.62 2272.62,121.675 
  "/>
<polyline clip-path="url(#clip6202)" style="stroke:#000000; stroke-width:2; stroke-opacity:0.1; fill:none" points="
  229.135,1397.95 2352.76,1397.95 
  "/>
<polyline clip-path="url(#clip6202)" style="stroke:#000000; stroke-width:2; stroke-opacity:0.1; fill:none" points="
  229.135,1070.27 2352.76,1070.27 
  "/>
<polyline clip-path="url(#clip6202)" style="stroke:#000000; stroke-width:2; stroke-opacity:0.1; fill:none" points="
  229.135,742.593 2352.76,742.593 
  "/>
<polyline clip-path="url(#clip6202)" style="stroke:#000000; stroke-width:2; stroke-opacity:0.1; fill:none" points="
  229.135,414.913 2352.76,414.913 
  "/>
<polyline clip-path="url(#clip6200)" style="stroke:#000000; stroke-width:4; stroke-opacity:1; fill:none" points="
  229.135,1425.62 2352.76,1425.62 
  "/>
<polyline clip-path="url(#clip6200)" style="stroke:#000000; stroke-width:4; stroke-opacity:1; fill:none" points="
  229.135,1425.62 229.135,121.675 
  "/>
<polyline clip-path="url(#clip6200)" style="stroke:#000000; stroke-width:4; stroke-opacity:1; fill:none" points="
  269.204,1425.62 269.204,1409.97 
  "/>
<polyline clip-path="url(#clip6200)" style="stroke:#000000; stroke-width:4; stroke-opacity:1; fill:none" points="
  770.057,1425.62 770.057,1409.97 
  "/>
<polyline clip-path="url(#clip6200)" style="stroke:#000000; stroke-width:4; stroke-opacity:1; fill:none" points="
  1270.91,1425.62 1270.91,1409.97 
  "/>
<polyline clip-path="url(#clip6200)" style="stroke:#000000; stroke-width:4; stroke-opacity:1; fill:none" points="
  1771.77,1425.62 1771.77,1409.97 
  "/>
<polyline clip-path="url(#clip6200)" style="stroke:#000000; stroke-width:4; stroke-opacity:1; fill:none" points="
  2272.62,1425.62 2272.62,1409.97 
  "/>
<polyline clip-path="url(#clip6200)" style="stroke:#000000; stroke-width:4; stroke-opacity:1; fill:none" points="
  229.135,1397.95 254.619,1397.95 
  "/>
<polyline clip-path="url(#clip6200)" style="stroke:#000000; stroke-width:4; stroke-opacity:1; fill:none" points="
  229.135,1070.27 254.619,1070.27 
  "/>
<polyline clip-path="url(#clip6200)" style="stroke:#000000; stroke-width:4; stroke-opacity:1; fill:none" points="
  229.135,742.593 254.619,742.593 
  "/>
<polyline clip-path="url(#clip6200)" style="stroke:#000000; stroke-width:4; stroke-opacity:1; fill:none" points="
  229.135,414.913 254.619,414.913 
  "/>
<g clip-path="url(#clip6200)">
<text style="fill:#000000; fill-opacity:1; font-family:Arial,Helvetica Neue,Helvetica,sans-serif; font-size:48px; text-anchor:middle;" transform="rotate(0, 269.204, 1479.62)" x="269.204" y="1479.62">0</text>
</g>
<g clip-path="url(#clip6200)">
<text style="fill:#000000; fill-opacity:1; font-family:Arial,Helvetica Neue,Helvetica,sans-serif; font-size:48px; text-anchor:middle;" transform="rotate(0, 770.057, 1479.62)" x="770.057" y="1479.62">25</text>
</g>
<g clip-path="url(#clip6200)">
<text style="fill:#000000; fill-opacity:1; font-family:Arial,Helvetica Neue,Helvetica,sans-serif; font-size:48px; text-anchor:middle;" transform="rotate(0, 1270.91, 1479.62)" x="1270.91" y="1479.62">50</text>
</g>
<g clip-path="url(#clip6200)">
<text style="fill:#000000; fill-opacity:1; font-family:Arial,Helvetica Neue,Helvetica,sans-serif; font-size:48px; text-anchor:middle;" transform="rotate(0, 1771.77, 1479.62)" x="1771.77" y="1479.62">75</text>
</g>
<g clip-path="url(#clip6200)">
<text style="fill:#000000; fill-opacity:1; font-family:Arial,Helvetica Neue,Helvetica,sans-serif; font-size:48px; text-anchor:middle;" transform="rotate(0, 2272.62, 1479.62)" x="2272.62" y="1479.62">100</text>
</g>
<g clip-path="url(#clip6200)">
<text style="fill:#000000; fill-opacity:1; font-family:Arial,Helvetica Neue,Helvetica,sans-serif; font-size:48px; text-anchor:end;" transform="rotate(0, 205.135, 1415.45)" x="205.135" y="1415.45">0</text>
</g>
<g clip-path="url(#clip6200)">
<text style="fill:#000000; fill-opacity:1; font-family:Arial,Helvetica Neue,Helvetica,sans-serif; font-size:48px; text-anchor:end;" transform="rotate(0, 205.135, 1087.77)" x="205.135" y="1087.77">50</text>
</g>
<g clip-path="url(#clip6200)">
<text style="fill:#000000; fill-opacity:1; font-family:Arial,Helvetica Neue,Helvetica,sans-serif; font-size:48px; text-anchor:end;" transform="rotate(0, 205.135, 760.093)" x="205.135" y="760.093">100</text>
</g>
<g clip-path="url(#clip6200)">
<text style="fill:#000000; fill-opacity:1; font-family:Arial,Helvetica Neue,Helvetica,sans-serif; font-size:48px; text-anchor:end;" transform="rotate(0, 205.135, 432.413)" x="205.135" y="432.413">150</text>
</g>
<g clip-path="url(#clip6200)">
<text style="fill:#000000; fill-opacity:1; font-family:Arial,Helvetica Neue,Helvetica,sans-serif; font-size:84px; text-anchor:middle;" transform="rotate(0, 1290.95, 73.2)" x="1290.95" y="73.2">Learning with SGD</text>
</g>
<g clip-path="url(#clip6200)">
<text style="fill:#000000; fill-opacity:1; font-family:Arial,Helvetica Neue,Helvetica,sans-serif; font-size:66px; text-anchor:middle;" transform="rotate(0, 1290.95, 1559.48)" x="1290.95" y="1559.48">Iterations</text>
</g>
<g clip-path="url(#clip6200)">
<text style="fill:#000000; fill-opacity:1; font-family:Arial,Helvetica Neue,Helvetica,sans-serif; font-size:66px; text-anchor:middle;" transform="rotate(-90, 89.2861, 773.647)" x="89.2861" y="773.647">Cost</text>
</g>
<polyline clip-path="url(#clip6202)" style="stroke:#009af9; stroke-width:4; stroke-opacity:1; fill:none" points="
  289.238,709.476 309.272,937.504 329.306,158.579 349.34,191.245 369.374,375.805 389.409,388.977 409.443,699.096 429.477,743.863 449.511,769.089 469.545,798.135 
  489.579,803.098 509.613,826.478 529.648,876.336 549.682,888.966 569.716,893.279 589.75,947.581 609.784,968.255 629.818,973.288 649.853,973.695 669.887,981.09 
  689.921,1030.5 709.955,1039.05 729.989,1042.68 750.023,1045.42 770.057,1048.47 790.092,1048.9 810.126,1101.91 830.16,1158.15 850.194,1218.41 870.228,1272.55 
  890.262,1281.48 910.297,1282.35 930.331,1283.11 950.365,1283.2 970.399,1303.43 990.433,1303.63 1010.47,1304.95 1030.5,1311.65 1050.54,1318.56 1070.57,1318.58 
  1090.6,1318.99 1110.64,1319.28 1130.67,1319.28 1150.71,1319.3 1170.74,1319.34 1190.77,1321.13 1210.81,1323.97 1230.84,1332.14 1250.88,1333.19 1270.91,1339.79 
  1290.95,1340.64 1310.98,1340.65 1331.01,1355.03 1351.05,1355.06 1371.08,1355.06 1391.12,1357.11 1411.15,1358.93 1431.18,1359.74 1451.22,1359.75 1471.25,1363.77 
  1491.29,1364.71 1511.32,1365.51 1531.36,1367.13 1551.39,1367.54 1571.42,1368.52 1591.46,1370.55 1611.49,1372.27 1631.53,1372.47 1651.56,1372.47 1671.59,1373.2 
  1691.63,1374.58 1711.66,1379.1 1731.7,1379.3 1751.73,1380.08 1771.77,1380.08 1791.8,1380.27 1811.83,1380.77 1831.87,1380.9 1851.9,1383.5 1871.94,1383.61 
  1891.97,1383.84 1912,1383.95 1932.04,1384.62 1952.07,1384.73 1972.11,1384.76 1992.14,1385.41 2012.18,1386.37 2032.21,1386.45 2052.24,1386.48 2072.28,1386.72 
  2092.31,1386.78 2112.35,1387.26 2132.38,1387.39 2152.41,1387.53 2172.45,1387.67 2192.48,1387.99 2212.52,1388.17 2232.55,1388.21 2252.59,1388.24 2272.62,1388.25 
  2292.65,1388.71 
  "/>
</svg>
