<?xml version="1.0" encoding="utf-8"?>
<svg xmlns="http://www.w3.org/2000/svg" xmlns:xlink="http://www.w3.org/1999/xlink" width="600" height="400" viewBox="0 0 2400 1600">
<defs>
  <clipPath id="clip6600">
    <rect x="0" y="0" width="2400" height="1600"/>
  </clipPath>
</defs>
<path clip-path="url(#clip6600)" d="
M0 1600 L2400 1600 L2400 0 L0 0  Z
  " fill="#ffffff" fill-rule="evenodd" fill-opacity="1"/>
<defs>
  <clipPath id="clip6601">
    <rect x="480" y="0" width="1681" height="1600"/>
  </clipPath>
</defs>
<path clip-path="url(#clip6600)" d="
M229.135 1425.62 L2352.76 1425.62 L2352.76 121.675 L229.135 121.675  Z
  " fill="#ffffff" fill-rule="evenodd" fill-opacity="1"/>
<defs>
  <clipPath id="clip6602">
    <rect x="229" y="121" width="2125" height="1305"/>
  </clipPath>
</defs>
<polyline clip-path="url(#clip6602)" style="stroke:#000000; stroke-width:2; stroke-opacity:0.1; fill:none" points="
  269.204,1425.62 269.204,121.675 
  "/>
<polyline clip-path="url(#clip6602)" style="stroke:#000000; stroke-width:2; stroke-opacity:0.1; fill:none" points="
  770.057,1425.62 770.057,121.675 
  "/>
<polyline clip-path="url(#clip6602)" style="stroke:#000000; stroke-width:2; stroke-opacity:0.1; fill:none" points="
  1270.91,1425.62 1270.91,121.675 
  "/>
<polyline clip-path="url(#clip6602)" style="stroke:#000000; stroke-width:2; stroke-opacity:0.1; fill:none" points="
  1771.77,1425.62 1771.77,121.675 
  "/>
<polyline clip-path="url(#clip6602)" style="stroke:#000000; stroke-width:2; stroke-opacity:0.1; fill:none" points="
  2272.62,1425.62 2272.62,121.675 
  "/>
<polyline clip-path="url(#clip6602)" style="stroke:#000000; stroke-width:2; stroke-opacity:0.1; fill:none" points="
  229.135,1388.71 2352.76,1388.71 
  "/>
<polyline clip-path="url(#clip6602)" style="stroke:#000000; stroke-width:2; stroke-opacity:0.1; fill:none" points="
  229.135,1095.97 2352.76,1095.97 
  "/>
<polyline clip-path="url(#clip6602)" style="stroke:#000000; stroke-width:2; stroke-opacity:0.1; fill:none" points="
  229.135,803.232 2352.76,803.232 
  "/>
<polyline clip-path="url(#clip6602)" style="stroke:#000000; stroke-width:2; stroke-opacity:0.1; fill:none" points="
  229.135,510.491 2352.76,510.491 
  "/>
<polyline clip-path="url(#clip6602)" style="stroke:#000000; stroke-width:2; stroke-opacity:0.1; fill:none" points="
  229.135,217.75 2352.76,217.75 
  "/>
<polyline clip-path="url(#clip6600)" style="stroke:#000000; stroke-width:4; stroke-opacity:1; fill:none" points="
  229.135,1425.62 2352.76,1425.62 
  "/>
<polyline clip-path="url(#clip6600)" style="stroke:#000000; stroke-width:4; stroke-opacity:1; fill:none" points="
  229.135,1425.62 229.135,121.675 
  "/>
<polyline clip-path="url(#clip6600)" style="stroke:#000000; stroke-width:4; stroke-opacity:1; fill:none" points="
  269.204,1425.62 269.204,1409.97 
  "/>
<polyline clip-path="url(#clip6600)" style="stroke:#000000; stroke-width:4; stroke-opacity:1; fill:none" points="
  770.057,1425.62 770.057,1409.97 
  "/>
<polyline clip-path="url(#clip6600)" style="stroke:#000000; stroke-width:4; stroke-opacity:1; fill:none" points="
  1270.91,1425.62 1270.91,1409.97 
  "/>
<polyline clip-path="url(#clip6600)" style="stroke:#000000; stroke-width:4; stroke-opacity:1; fill:none" points="
  1771.77,1425.62 1771.77,1409.97 
  "/>
<polyline clip-path="url(#clip6600)" style="stroke:#000000; stroke-width:4; stroke-opacity:1; fill:none" points="
  2272.62,1425.62 2272.62,1409.97 
  "/>
<polyline clip-path="url(#clip6600)" style="stroke:#000000; stroke-width:4; stroke-opacity:1; fill:none" points="
  229.135,1388.71 254.619,1388.71 
  "/>
<polyline clip-path="url(#clip6600)" style="stroke:#000000; stroke-width:4; stroke-opacity:1; fill:none" points="
  229.135,1095.97 254.619,1095.97 
  "/>
<polyline clip-path="url(#clip6600)" style="stroke:#000000; stroke-width:4; stroke-opacity:1; fill:none" points="
  229.135,803.232 254.619,803.232 
  "/>
<polyline clip-path="url(#clip6600)" style="stroke:#000000; stroke-width:4; stroke-opacity:1; fill:none" points="
  229.135,510.491 254.619,510.491 
  "/>
<polyline clip-path="url(#clip6600)" style="stroke:#000000; stroke-width:4; stroke-opacity:1; fill:none" points="
  229.135,217.75 254.619,217.75 
  "/>
<g clip-path="url(#clip6600)">
<text style="fill:#000000; fill-opacity:1; font-family:Arial,Helvetica Neue,Helvetica,sans-serif; font-size:48px; text-anchor:middle;" transform="rotate(0, 269.204, 1479.62)" x="269.204" y="1479.62">0</text>
</g>
<g clip-path="url(#clip6600)">
<text style="fill:#000000; fill-opacity:1; font-family:Arial,Helvetica Neue,Helvetica,sans-serif; font-size:48px; text-anchor:middle;" transform="rotate(0, 770.057, 1479.62)" x="770.057" y="1479.62">25</text>
</g>
<g clip-path="url(#clip6600)">
<text style="fill:#000000; fill-opacity:1; font-family:Arial,Helvetica Neue,Helvetica,sans-serif; font-size:48px; text-anchor:middle;" transform="rotate(0, 1270.91, 1479.62)" x="1270.91" y="1479.62">50</text>
</g>
<g clip-path="url(#clip6600)">
<text style="fill:#000000; fill-opacity:1; font-family:Arial,Helvetica Neue,Helvetica,sans-serif; font-size:48px; text-anchor:middle;" transform="rotate(0, 1771.77, 1479.62)" x="1771.77" y="1479.62">75</text>
</g>
<g clip-path="url(#clip6600)">
<text style="fill:#000000; fill-opacity:1; font-family:Arial,Helvetica Neue,Helvetica,sans-serif; font-size:48px; text-anchor:middle;" transform="rotate(0, 2272.62, 1479.62)" x="2272.62" y="1479.62">100</text>
</g>
<g clip-path="url(#clip6600)">
<text style="fill:#000000; fill-opacity:1; font-family:Arial,Helvetica Neue,Helvetica,sans-serif; font-size:48px; text-anchor:end;" transform="rotate(0, 205.135, 1406.21)" x="205.135" y="1406.21">0</text>
</g>
<g clip-path="url(#clip6600)">
<text style="fill:#000000; fill-opacity:1; font-family:Arial,Helvetica Neue,Helvetica,sans-serif; font-size:48px; text-anchor:end;" transform="rotate(0, 205.135, 1113.47)" x="205.135" y="1113.47">25</text>
</g>
<g clip-path="url(#clip6600)">
<text style="fill:#000000; fill-opacity:1; font-family:Arial,Helvetica Neue,Helvetica,sans-serif; font-size:48px; text-anchor:end;" transform="rotate(0, 205.135, 820.732)" x="205.135" y="820.732">50</text>
</g>
<g clip-path="url(#clip6600)">
<text style="fill:#000000; fill-opacity:1; font-family:Arial,Helvetica Neue,Helvetica,sans-serif; font-size:48px; text-anchor:end;" transform="rotate(0, 205.135, 527.991)" x="205.135" y="527.991">75</text>
</g>
<g clip-path="url(#clip6600)">
<text style="fill:#000000; fill-opacity:1; font-family:Arial,Helvetica Neue,Helvetica,sans-serif; font-size:48px; text-anchor:end;" transform="rotate(0, 205.135, 235.25)" x="205.135" y="235.25">100</text>
</g>
<g clip-path="url(#clip6600)">
<text style="fill:#000000; fill-opacity:1; font-family:Arial,Helvetica Neue,Helvetica,sans-serif; font-size:84px; text-anchor:middle;" transform="rotate(0, 1290.95, 73.2)" x="1290.95" y="73.2">Learning with EKF</text>
</g>
<g clip-path="url(#clip6600)">
<text style="fill:#000000; fill-opacity:1; font-family:Arial,Helvetica Neue,Helvetica,sans-serif; font-size:66px; text-anchor:middle;" transform="rotate(0, 1290.95, 1559.48)" x="1290.95" y="1559.48">Iterations</text>
</g>
<g clip-path="url(#clip6600)">
<text style="fill:#000000; fill-opacity:1; font-family:Arial,Helvetica Neue,Helvetica,sans-serif; font-size:66px; text-anchor:middle;" transform="rotate(-90, 89.2861, 773.647)" x="89.2861" y="773.647">Cost</text>
</g>
<polyline clip-path="url(#clip6602)" style="stroke:#009af9; stroke-width:4; stroke-opacity:1; fill:none" points="
  289.238,158.579 309.272,914.807 329.306,949.096 349.34,1336.83 369.374,1385.39 389.409,1388.67 409.443,1388.67 429.477,1388.69 449.511,1388.69 469.545,1388.71 
  489.579,1388.71 509.613,1388.71 529.648,1388.71 549.682,1388.71 569.716,1388.71 589.75,1388.71 609.784,1388.71 629.818,1388.71 649.853,1388.71 669.887,1388.71 
  689.921,1388.71 709.955,1388.71 729.989,1388.71 750.023,1388.71 770.057,1388.71 790.092,1388.71 810.126,1388.71 830.16,1388.71 850.194,1388.71 870.228,1388.71 
  890.262,1388.71 910.297,1388.71 930.331,1388.71 950.365,1388.71 970.399,1388.71 990.433,1388.71 1010.47,1388.71 1030.5,1388.71 1050.54,1388.71 1070.57,1388.71 
  1090.6,1388.71 1110.64,1388.71 1130.67,1388.71 1150.71,1388.71 1170.74,1388.71 1190.77,1388.71 1210.81,1388.71 1230.84,1388.71 1250.88,1388.71 1270.91,1388.71 
  1290.95,1388.71 1310.98,1388.71 1331.01,1388.71 1351.05,1388.71 1371.08,1388.71 1391.12,1388.71 1411.15,1388.71 1431.18,1388.71 1451.22,1388.71 1471.25,1388.71 
  1491.29,1388.71 1511.32,1388.71 1531.36,1388.71 1551.39,1388.71 1571.42,1388.71 1591.46,1388.71 1611.49,1388.71 1631.53,1388.71 1651.56,1388.71 1671.59,1388.71 
  1691.63,1388.71 1711.66,1388.71 1731.7,1388.71 1751.73,1388.71 1771.77,1388.71 1791.8,1388.71 1811.83,1388.71 1831.87,1388.71 1851.9,1388.71 1871.94,1388.71 
  1891.97,1388.71 1912,1388.71 1932.04,1388.71 1952.07,1388.71 1972.11,1388.71 1992.14,1388.71 2012.18,1388.71 2032.21,1388.71 2052.24,1388.71 2072.28,1388.71 
  2092.31,1388.71 2112.35,1388.71 2132.38,1388.71 2152.41,1388.71 2172.45,1388.71 2192.48,1388.71 2212.52,1388.71 2232.55,1388.71 2252.59,1388.71 2272.62,1388.71 
  2292.65,1388.71 
  "/>
</svg>
